<?xml version="1.0" standalone="no"?>
<!DOCTYPE svg PUBLIC "-//W3C//DTD SVG 20010904//EN"
 "http://www.w3.org/TR/2001/REC-SVG-20010904/DTD/svg10.dtd">
<svg version="1.0" xmlns="http://www.w3.org/2000/svg"
 width="512.000000pt" height="512.000000pt" viewBox="0 0 512.000000 512.000000"
 preserveAspectRatio="xMidYMid meet">
<metadata>
Created by potrace 1.14, written by Peter Selinger 2001-2017
</metadata>
<g transform="translate(0.000000,512.000000) scale(0.100000,-0.100000)"
fill="#000000" stroke="none">
<path d="M1586 5111 c-3 -5 1 -11 9 -15 15 -6 29 7 18 18 -9 9 -21 8 -27 -3z"/>
<path d="M1630 5110 c0 -5 7 -10 16 -10 8 0 12 5 9 10 -3 6 -10 10 -16 10 -5
0 -9 -4 -9 -10z"/>
<path d="M2061 5108 c0 -10 -8 -18 -16 -18 -8 0 -15 -4 -15 -10 0 -5 11 -10
24 -10 14 0 28 5 31 10 3 6 2 10 -4 10 -5 0 -12 8 -14 18 -4 16 -5 16 -6 0z"/>
<path d="M2090 5112 c0 -6 7 -17 15 -26 18 -17 20 -52 4 -62 -6 -3 -15 0 -20
7 -7 11 -10 9 -15 -8 -4 -13 -10 -23 -15 -23 -5 0 -9 -7 -9 -15 0 -18 16 -20
23 -2 3 7 6 4 6 -7 1 -16 -4 -18 -33 -13 -19 3 -39 0 -46 -6 -10 -9 -11 -7 -6
9 6 18 2 21 -26 19 -38 -1 -81 -22 -73 -35 3 -5 0 -12 -6 -16 -8 -5 -10 1 -7
19 4 19 1 24 -10 20 -11 -5 -13 -1 -7 15 3 13 2 22 -4 22 -5 0 -16 7 -25 15
-13 13 -15 13 -21 -3 -4 -15 -15 -19 -56 -18 -43 1 -49 4 -45 18 2 11 -1 18
-10 18 -8 0 -14 -4 -14 -9 0 -23 14 -41 31 -41 10 0 23 -9 29 -20 6 -11 7 -20
2 -20 -4 0 -12 -12 -18 -26 -8 -23 -11 -24 -29 -10 -11 8 -16 18 -12 22 4 5
12 3 16 -5 6 -10 10 -9 15 4 3 10 1 24 -6 32 -10 12 -14 11 -24 -9 -8 -13 -13
-19 -14 -15 0 4 -9 3 -19 -3 -14 -7 -21 -6 -24 3 -2 6 -8 9 -12 5 -5 -5 -6
-11 -3 -14 11 -10 43 -11 49 -1 4 5 10 -4 14 -22 4 -21 12 -31 25 -31 22 0 35
-16 20 -25 -8 -5 -7 -12 2 -22 15 -19 19 -41 7 -49 -5 -3 -9 0 -9 5 0 6 -4 11
-10 11 -5 0 -10 -7 -10 -15 0 -8 -4 -15 -10 -15 -5 0 -10 9 -10 21 0 11 -4 18
-9 15 -4 -3 -7 -21 -6 -40 3 -27 -2 -38 -19 -50 -25 -16 -27 -45 -7 -70 10
-12 10 -20 3 -29 -7 -8 -7 -18 -2 -27 15 -24 11 -40 -9 -40 -11 0 -23 -4 -26
-10 -3 -5 -19 -10 -36 -10 -16 0 -29 -4 -29 -10 0 -14 -28 -12 -32 2 -3 9 -9
8 -22 -5 -10 -9 -13 -17 -7 -17 6 0 11 -7 11 -15 0 -8 9 -15 19 -15 23 0 37
-46 20 -66 -9 -10 -9 -14 0 -14 6 0 14 7 17 15 4 8 15 15 25 15 10 0 19 5 19
10 0 21 18 9 28 -18 9 -25 7 -30 -19 -48 -34 -22 -37 -34 -9 -34 11 0 20 4 20
9 0 14 49 7 55 -8 8 -19 -2 -26 -18 -13 -11 9 -17 6 -27 -12 -7 -14 -10 -32
-6 -41 5 -13 2 -16 -11 -10 -13 4 -12 0 5 -15 18 -17 31 -21 54 -16 25 5 29 3
24 -10 -3 -9 -6 -22 -6 -30 0 -20 -83 -19 -100 1 -7 8 -16 15 -21 15 -5 0 -9
-7 -9 -15 0 -8 -8 -15 -19 -15 -10 0 -21 -8 -23 -18 -4 -15 -1 -18 21 -14 23
5 23 6 6 12 -17 6 -16 7 7 12 24 4 27 2 30 -29 5 -37 -10 -57 -19 -25 -6 25
-43 18 -43 -9 0 -11 -6 -19 -14 -19 -8 0 -17 -6 -19 -12 -3 -7 -6 -2 -6 12 -1
15 4 31 10 37 13 13 -4 53 -23 53 -7 0 -6 5 2 15 13 16 40 20 40 7 0 -16 27
-9 39 10 7 11 7 18 1 18 -5 0 -10 -4 -10 -10 0 -5 -7 -10 -15 -10 -12 0 -12 3
2 19 9 11 20 18 25 15 4 -3 8 0 8 5 0 16 -14 13 -36 -8 -11 -10 -30 -22 -42
-25 -12 -4 -22 -12 -22 -17 0 -5 -6 -9 -14 -9 -7 0 -20 -8 -27 -17 -11 -15
-11 -16 1 -5 17 14 44 16 35 2 -3 -6 4 -14 17 -19 18 -8 19 -10 5 -10 -14 -1
-17 -6 -12 -21 5 -14 2 -20 -9 -20 -9 0 -16 5 -16 10 0 6 -6 10 -13 10 -7 0
-18 9 -25 20 -13 22 -37 26 -48 9 -3 -6 -1 -16 5 -22 9 -9 11 -8 6 6 -5 11 -2
17 8 17 19 0 11 -36 -9 -44 -8 -3 -14 -12 -14 -21 0 -15 -20 -22 -20 -7 0 4
-4 13 -9 21 -7 11 -13 9 -30 -8 -11 -11 -18 -27 -15 -36 4 -8 1 -15 -5 -15 -6
0 -11 7 -11 15 0 7 -7 18 -17 23 -14 9 -14 10 5 16 32 10 27 23 -8 23 -21 0
-29 -5 -26 -13 3 -7 -2 -15 -10 -18 -8 -3 -13 -2 -10 3 7 11 -36 23 -44 12
-20 -31 -93 18 -84 56 4 14 2 23 -5 23 -6 0 -11 -4 -11 -10 0 -5 -11 -10 -25
-10 -14 0 -25 -5 -25 -11 0 -6 9 -9 19 -6 15 4 22 -2 30 -25 10 -29 10 -30
-14 -24 -23 6 -44 -9 -30 -22 3 -3 10 0 15 8 7 10 10 11 10 3 0 -7 7 -13 15
-13 8 0 25 -10 37 -22 l21 -21 -21 5 c-12 4 -25 2 -28 -3 -3 -5 0 -9 5 -9 6 0
11 -8 11 -17 0 -15 -2 -14 -15 3 -8 10 -15 27 -15 37 0 21 -7 22 -26 2 -9 -8
-21 -15 -27 -15 -7 0 -6 5 3 11 11 8 12 12 3 16 -7 2 -13 11 -13 19 0 12 -6
16 -26 13 -14 -1 -30 36 -27 60 2 14 0 20 -3 13 -3 -6 -10 -10 -15 -6 -5 3 -9
-4 -9 -15 0 -31 -11 -52 -24 -44 -32 21 -44 13 -44 -30 0 -25 3 -35 7 -24 6
16 9 15 30 -8 12 -15 20 -30 16 -33 -4 -4 -12 0 -19 9 -10 15 -15 15 -40 2
-20 -11 -31 -12 -39 -4 -8 8 -5 11 11 11 27 0 28 8 5 26 -17 13 -17 13 0 14
10 0 17 7 16 18 0 10 -3 12 -6 5 -2 -7 -14 -13 -25 -13 -14 0 -18 5 -14 15 3
8 1 15 -4 15 -6 0 -10 -6 -10 -13 0 -7 -9 -18 -21 -25 -18 -12 -20 -11 -17 5
2 10 11 17 19 15 9 -1 7 3 -5 13 -11 8 -26 15 -33 15 -14 0 -73 -58 -73 -72 0
-14 11 -8 30 15 10 12 22 19 26 14 4 -4 0 -13 -10 -20 -9 -7 -18 -21 -20 -32
-3 -24 -41 -51 -51 -36 -3 6 1 11 9 11 9 0 16 7 16 15 0 23 -38 18 -45 -6 -4
-11 -12 -18 -19 -16 -32 12 -40 -11 -41 -120 l-2 -108 34 -29 c18 -16 33 -37
33 -46 0 -9 9 -25 20 -35 19 -17 19 -20 4 -36 -18 -20 -10 -61 10 -53 9 3 15
-6 19 -25 5 -22 12 -31 27 -31 12 0 20 -7 20 -17 0 -18 -20 -56 -20 -39 0 5
-7 3 -15 -4 -18 -15 -10 -31 10 -23 27 10 12 -41 -17 -59 -16 -10 -28 -23 -28
-28 0 -6 4 -9 9 -6 20 13 20 -28 0 -50 -14 -15 -19 -29 -14 -41 15 -36 13 -88
-4 -100 -9 -7 -11 -13 -5 -13 11 0 12 -75 1 -86 -11 -11 -47 17 -47 36 0 14
-5 18 -18 13 -9 -4 -21 -11 -25 -17 -6 -8 -10 -7 -14 2 -2 6 -11 12 -18 12 -8
0 -18 6 -22 13 -4 6 -21 19 -38 27 -16 9 -30 23 -30 33 0 24 -32 58 -48 51
-20 -7 -29 22 -11 37 8 7 12 20 9 30 -4 12 -1 19 7 19 10 0 10 2 -1 9 -7 5
-11 17 -7 27 3 11 2 25 -3 33 -6 9 -4 29 4 52 9 23 10 41 4 44 -15 10 -11 48
9 87 13 25 18 54 17 97 -2 42 2 64 11 72 8 6 14 8 14 3 0 -4 7 1 15 12 14 18
15 17 9 -11 -4 -23 -3 -26 5 -15 6 8 11 24 11 36 0 11 3 24 7 28 12 11 14 126
3 146 -5 9 -6 20 -3 24 4 3 8 14 9 24 2 9 6 36 10 60 4 29 3 42 -5 42 -6 0
-11 5 -11 10 0 6 7 10 15 10 8 0 20 9 27 20 7 11 18 20 24 20 16 0 25 25 14
36 -5 5 -11 21 -13 34 -3 20 -11 26 -35 28 -27 3 -31 7 -30 28 2 17 7 23 18
19 12 -5 12 -4 3 6 -19 19 -66 21 -59 3 3 -8 1 -14 -4 -14 -19 0 -10 32 15 52
30 23 34 43 6 28 -26 -13 -31 -13 -31 5 0 9 9 15 22 15 16 0 19 3 11 11 -8 8
-17 7 -32 -3 -20 -12 -25 -9 -61 30 -22 23 -44 42 -49 42 -5 0 -16 3 -25 6
-11 4 -16 0 -16 -13 0 -12 -8 -19 -20 -20 -11 -1 -18 2 -15 8 4 5 -3 9 -14 9
-23 0 -37 -16 -19 -23 10 -3 10 -7 0 -19 -7 -9 -10 -22 -7 -30 8 -20 -25 -33
-37 -16 -4 7 -8 19 -8 26 0 6 -4 12 -10 12 -5 0 -10 -4 -10 -9 0 -5 -5 -22
-11 -38 -6 -15 -13 -41 -14 -56 -4 -36 -15 -48 -16 -16 l0 24 -9 -22 c-11 -27
-29 -31 -25 -5 1 9 0 11 -2 5 -3 -7 -9 -13 -14 -13 -6 0 -7 -9 -4 -20 3 -11 2
-20 -4 -20 -14 0 -15 -544 0 -571 8 -15 8 -24 0 -32 -8 -8 -11 -521 -11 -1804
l0 -1793 2560 0 2560 0 0 2560 0 2560 -788 0 c-584 0 -791 -3 -800 -12 -8 -8
-15 -8 -24 -1 -9 8 -161 11 -456 12 l-443 2 -69 -33 c-38 -18 -70 -39 -70 -45
0 -16 -36 -17 -45 -2 -5 7 -15 5 -32 -6 -31 -21 -38 -14 -21 21 9 20 25 32 52
39 22 6 36 14 30 17 -19 12 -139 6 -161 -8 -12 -7 -29 -11 -37 -8 -9 3 -16 1
-16 -5 0 -6 5 -11 10 -11 6 0 10 -4 10 -9 0 -5 -11 -8 -25 -8 -26 0 -34 12
-12 20 6 2 9 8 5 12 -5 5 -17 -2 -28 -15 -11 -13 -23 -20 -27 -16 -4 4 -1 11
7 16 8 5 11 12 7 16 -3 4 -13 2 -21 -5 -11 -9 -15 -9 -20 1 -3 7 -3 -3 0 -22
4 -19 11 -41 16 -47 6 -7 7 -13 3 -13 -11 0 -34 33 -35 48 0 16 -40 70 -40 54z
m256 -22 c0 -11 -4 -20 -8 -20 -4 0 -8 -9 -8 -20 0 -11 5 -20 12 -20 6 0 9 -2
7 -5 -3 -2 -18 0 -35 4 -16 5 -22 10 -13 10 23 1 33 41 11 41 -15 1 -14 3 2
15 26 20 32 19 32 -5z m29 10 c3 -5 1 -10 -4 -10 -6 0 -11 5 -11 10 0 6 2 10
4 10 3 0 8 -4 11 -10z m433 -28 c3 -11 0 -12 -16 -3 -12 6 -31 7 -50 2 -22 -7
-32 -6 -36 2 -3 9 -7 9 -13 -1 -5 -7 -27 -15 -49 -17 -21 -3 -55 -7 -74 -10
-23 -3 -11 4 35 20 79 28 195 31 203 7z m-604 -37 c-6 -16 -24 -21 -24 -7 0
11 11 22 21 22 5 0 6 -7 3 -15z m49 3 c-13 -6 -23 -17 -23 -25 0 -7 -4 -13
-10 -13 -13 0 -13 6 0 31 6 10 21 19 33 18 l22 0 -22 -11z m-158 -28 c3 -5 1
-10 -4 -10 -6 0 -11 5 -11 10 0 6 2 10 4 10 3 0 8 -4 11 -10z m429 -5 c-10 -8
-23 -14 -29 -14 -5 0 -1 6 9 14 11 8 24 15 30 15 5 0 1 -7 -10 -15z m-674 -4
c0 -5 -16 -15 -35 -22 -19 -7 -35 -16 -35 -21 0 -4 7 -4 17 -1 11 4 14 3 9 -5
-5 -8 -2 -10 8 -6 9 3 16 2 16 -4 0 -5 -7 -12 -15 -16 -8 -3 -15 -11 -15 -18
0 -7 9 -3 22 9 17 17 19 25 10 36 -9 11 -8 13 8 12 21 -1 41 -15 22 -15 -7 0
-12 -11 -12 -25 0 -14 -3 -24 -7 -24 -22 4 -25 -2 -8 -14 14 -11 15 -16 5 -22
-9 -6 -11 -4 -5 5 6 10 4 12 -8 7 -10 -3 -17 -2 -17 3 0 6 -5 10 -11 10 -6 0
-8 -8 -4 -19 3 -11 1 -22 -5 -26 -6 -3 -10 3 -10 14 0 14 -6 21 -18 21 -23 0
-25 28 -4 52 9 11 12 26 8 43 -6 23 -4 26 13 20 12 -3 29 -2 38 4 23 13 33 14
33 2z m295 -11 c20 -22 7 -28 -14 -7 -11 10 -14 10 -18 0 -3 -7 -9 -13 -14
-13 -5 0 -4 9 3 20 7 11 16 20 19 20 3 0 14 -9 24 -20z m55 1 c0 -6 -4 -13
-10 -16 -5 -3 -10 1 -10 9 0 9 5 16 10 16 6 0 10 -4 10 -9z m139 -5 c9 -10 8
-15 -2 -19 -8 -3 -13 3 -13 14 0 23 0 23 15 5z m2671 -25 c-1 -13 -3 -13 -15
3 -19 26 -19 42 0 26 8 -7 15 -20 15 -29z m-2627 -4 c3 -8 -1 -14 -9 -14 -15
0 -18 9 -7 20 9 9 10 9 16 -6z m2224 -3 c7 -18 -17 -38 -30 -25 -9 9 1 41 14
41 5 0 12 -7 16 -16z m-2574 0 c7 -7 -2 -34 -12 -34 -4 0 -7 9 -7 20 0 20 7
25 19 14z m-53 -19 c0 -17 -25 -20 -35 -5 -3 6 1 7 9 4 9 -3 16 -1 16 5 0 6 2
11 5 11 3 0 5 -7 5 -15z m-50 -16 c0 -6 -4 -7 -10 -4 -5 3 -10 0 -10 -8 0 -21
-64 -83 -82 -79 -9 2 -18 -4 -22 -14 -4 -12 -2 -15 9 -10 8 3 15 1 15 -4 0 -6
-10 -10 -22 -10 -19 0 -20 -2 -8 -10 8 -5 25 -10 38 -10 12 0 22 -6 22 -14 0
-8 5 -18 11 -22 18 -10 79 -12 79 -1 0 5 -6 7 -14 4 -12 -5 -13 -1 -4 24 12
34 14 35 36 13 15 -15 14 -16 -8 -9 -25 8 -25 8 -6 -14 18 -20 20 -20 32 -3 7
9 16 13 20 9 4 -4 -2 -14 -14 -23 -12 -8 -19 -21 -15 -29 3 -9 -1 -23 -8 -32
-8 -10 -9 -14 -2 -10 16 10 28 -12 13 -26 -9 -9 -15 -7 -25 7 -13 18 -15 18
-21 2 -4 -10 -9 -13 -13 -8 -4 7 -16 3 -31 -8 -21 -16 -22 -20 -7 -20 10 0 15
-5 12 -10 -10 -16 24 -24 41 -9 14 11 19 9 36 -11 17 -22 18 -22 9 -3 -16 31
-14 40 4 17 24 -32 18 -50 -22 -60 -23 -5 -42 -18 -49 -32 -10 -20 -12 -21
-18 -7 -3 9 -6 26 -6 36 0 11 -4 17 -10 14 -5 -3 -10 0 -10 7 0 10 -2 10 -9
-1 -9 -14 -32 0 -69 41 -12 13 -18 15 -24 5 -6 -9 -8 -9 -8 1 0 6 -6 12 -12
12 -17 1 -58 35 -58 49 0 15 53 14 69 -1 11 -11 13 -10 9 2 -3 8 1 22 9 31 12
14 12 19 -2 32 -10 10 -11 18 -5 22 6 4 10 14 9 23 -5 34 12 63 42 69 28 5 46
33 35 52 -4 5 7 15 24 23 16 7 30 17 30 21 0 5 5 5 10 2 6 -3 10 -11 10 -16z
m221 4 c12 -14 12 -15 0 -9 -7 5 -16 5 -20 0 -3 -5 -17 -15 -31 -22 -23 -13
-23 -12 5 16 17 17 31 31 31 31 1 1 8 -7 15 -16z m96 11 c-3 -3 -12 -4 -19 -1
-8 3 -5 6 6 6 11 1 17 -2 13 -5z m128 -6 c5 4 5 1 1 -6 -4 -7 -11 -10 -16 -7
-11 7 -21 -21 -14 -40 7 -17 -21 -21 -31 -5 -3 6 0 10 7 10 10 0 10 2 -1 9
-20 13 -6 42 15 34 13 -5 15 -3 9 8 -7 11 -6 12 7 2 8 -7 19 -9 23 -5z m-290
-8 c3 -6 -1 -7 -9 -4 -18 7 -21 14 -7 14 6 0 13 -4 16 -10z m81 -42 c-10 -6
-22 -6 -26 -2 -5 5 3 10 18 11 22 1 24 0 8 -9z m-138 -23 c-3 -3 -9 2 -12 12
-6 14 -5 15 5 6 7 -7 10 -15 7 -18z m-141 -27 c-3 -8 -6 -5 -6 6 -1 11 2 17 5
13 3 -3 4 -12 1 -19z m330 -14 c-3 -3 -12 -4 -19 -1 -8 3 -5 6 6 6 11 1 17 -2
13 -5z m2611 -27 c5 -25 -28 -34 -44 -12 -7 10 -11 22 -8 27 10 15 49 4 52
-15z m-2918 -2 c0 -8 -4 -15 -10 -15 -5 0 -7 7 -4 15 4 8 8 15 10 15 2 0 4 -7
4 -15z m176 -18 c3 -3 -10 -4 -30 -3 -20 2 -39 6 -42 9 -3 3 10 4 30 3 20 -2
39 -6 42 -9z m2034 -41 c0 -7 -8 -20 -17 -27 -15 -12 -16 -12 -10 4 4 10 7 23
7 28 0 5 5 9 10 9 6 0 10 -6 10 -14z m-2390 -26 c0 -5 -4 -10 -10 -10 -5 0
-10 5 -10 10 0 6 5 10 10 10 6 0 10 -4 10 -10z m307 -58 c13 3 24 -2 32 -14
10 -16 15 -17 27 -8 8 8 14 8 14 2 0 -5 -7 -12 -15 -16 -8 -3 -15 -10 -15 -16
0 -5 7 -10 15 -10 8 0 15 -4 15 -10 0 -5 7 -10 15 -10 24 0 18 -19 -10 -32
-14 -6 -25 -15 -25 -20 0 -5 5 -6 11 -2 8 5 8 1 0 -13 -6 -11 -8 -22 -6 -25 3
-3 -4 -13 -15 -23 -19 -18 -20 -17 -21 1 0 11 -3 13 -6 7 -11 -28 -74 -2 -65
26 3 10 0 12 -12 8 -10 -4 -15 -3 -11 3 3 6 -1 10 -9 10 -9 0 -16 5 -16 11 0
6 8 8 19 4 11 -3 22 -1 26 5 3 5 11 10 17 10 6 0 5 -7 -3 -17 -12 -15 -10 -15
8 1 21 18 22 20 7 55 -9 20 -18 42 -21 49 -3 6 0 12 6 12 6 0 8 8 5 18 -5 13
-4 14 4 3 5 -8 19 -12 29 -9z m-162 -112 c3 -5 1 -10 -4 -10 -6 0 -11 5 -11
10 0 6 2 10 4 10 3 0 8 -4 11 -10z m2949 -26 c9 -22 8 -24 -9 -24 -8 0 -15 9
-15 20 0 24 15 27 24 4z m-2886 -50 c29 -5 25 -15 -4 -12 -17 1 -31 8 -31 15
0 6 5 9 11 5 6 -3 17 -7 24 -8z m-358 -14 c0 -5 -4 -10 -10 -10 -5 0 -10 5
-10 10 0 6 5 10 10 10 6 0 10 -4 10 -10z m221 -19 c-12 -11 -22 -23 -22 -28
-1 -4 -3 -10 -6 -13 -4 -3 -3 1 2 9 6 10 1 12 -25 6 -31 -7 -32 -7 -14 12 11
11 22 15 25 11 3 -4 14 -1 25 7 28 21 41 18 15 -4z m2391 -33 c-6 -6 -15 -7
-21 -4 -7 4 -4 13 7 24 13 14 18 15 20 4 2 -8 -1 -19 -6 -24z m-2310 12 c-1
-6 7 -14 19 -17 18 -5 20 -11 14 -37 -4 -17 -7 -36 -8 -43 0 -7 -4 -10 -9 -7
-4 3 -8 1 -8 -5 0 -6 -8 -8 -17 -5 -16 5 -16 4 -2 -8 18 -15 14 -38 -7 -38 -9
0 -13 -4 -10 -8 2 -4 -4 -8 -14 -8 -10 0 -17 3 -14 7 2 4 -4 17 -14 30 -20 26
-21 37 -8 58 6 10 5 12 -2 7 -22 -14 -34 5 -16 25 9 10 14 19 9 19 -4 0 -2 6
5 14 6 8 17 13 24 10 7 -3 19 2 26 11 14 17 37 14 32 -5z m1538 -22 c-7 -46
-26 -88 -38 -88 -5 0 -20 13 -35 28 l-27 28 25 24 25 23 1 -34 1 -34 15 35
c13 31 31 60 38 60 1 0 -1 -19 -5 -42z m-3120 17 c7 -8 10 -22 6 -30 -3 -8 -1
-15 3 -15 5 0 11 -7 15 -15 5 -13 2 -13 -18 0 -16 11 -22 22 -19 35 4 14 0 20
-11 20 -10 0 -14 5 -11 10 9 14 21 12 35 -5z m2895 -15 c-9 -17 -20 -28 -25
-25 -6 4 -3 16 7 30 25 34 36 31 18 -5z m-2972 -2 c-4 -7 -8 -17 -8 -22 0 -5
-6 -11 -13 -14 -10 -3 -11 16 -3 46 1 1 8 2 17 2 10 0 12 -4 7 -12z m1467 8
c0 -3 -4 -8 -10 -11 -5 -3 -10 -1 -10 4 0 6 5 11 10 11 6 0 10 -2 10 -4z m290
-21 c0 -12 -19 -12 -23 0 -4 9 -1 12 9 8 7 -3 14 -7 14 -8z m1274 -16 c-7 -11
-44 -12 -44 -1 0 4 5 13 12 20 13 13 42 -4 32 -19z m-1484 17 c0 -3 -4 -8 -10
-11 -5 -3 -10 -1 -10 4 0 6 5 11 10 11 6 0 10 -2 10 -4z m-1400 -26 c0 -5 -4
-10 -10 -10 -5 0 -10 5 -10 10 0 6 5 10 10 10 6 0 10 -4 10 -10z m1597 -42
c-4 -14 -13 -25 -22 -25 -11 0 -12 4 -4 14 6 7 9 25 6 39 -4 23 -3 24 11 11 9
-10 12 -24 9 -39z m1203 26 c0 -16 -9 -18 -29 -5 -7 5 -11 14 -7 19 9 15 36 4
36 -14z m-3036 0 c11 -28 6 -39 -9 -20 -8 11 -15 23 -15 28 0 14 18 9 24 -8z
m146 2 c0 -2 -9 -6 -20 -9 -11 -3 -18 -1 -14 4 5 9 34 13 34 5z m-73 -22 c2
-6 -6 -14 -19 -17 -27 -7 -30 -5 -22 17 7 18 35 18 41 0z m1538 6 c3 -5 1 -10
-4 -10 -6 0 -11 5 -11 10 0 6 2 10 4 10 3 0 8 -4 11 -10z m1312 -17 c-14 -30
-1 -43 76 -73 47 -18 58 -27 54 -41 -6 -21 9 -27 15 -7 3 7 20 11 46 10 36 -2
41 0 35 14 -5 13 -3 15 8 9 12 -8 12 -6 0 8 -27 34 -5 25 36 -13 41 -40 53
-41 53 -8 0 29 20 21 27 -12 4 -24 8 -28 19 -19 22 18 17 -5 -8 -36 -18 -23
-26 -26 -60 -22 -52 7 -48 -8 10 -29 26 -10 49 -19 51 -20 5 -4 -20 -28 -44
-43 -19 -11 -18 -11 5 -5 14 3 39 17 57 30 17 13 38 24 47 24 14 0 66 -89 66
-114 0 -22 -56 -67 -85 -69 -23 -2 -30 3 -35 23 -4 16 -14 26 -29 28 -15 2
-21 0 -17 -7 4 -7 1 -9 -8 -5 -8 3 -23 1 -33 -5 -10 -6 -13 -11 -5 -11 7 0 24
-11 37 -24 21 -21 23 -29 15 -56 -8 -27 -5 -35 24 -68 37 -41 51 -79 30 -79
-7 0 -12 5 -11 11 1 6 -6 10 -15 10 -10 -1 -15 2 -12 7 3 5 -10 9 -28 9 -18 1
-51 7 -72 15 -22 8 -44 11 -49 8 -6 -3 -7 -1 -3 5 4 7 2 13 -3 13 -14 2 -21 4
-46 13 -11 4 -33 13 -50 19 -51 19 -74 37 -68 55 4 13 2 12 -10 -3 -8 -11 -15
-20 -14 -20 1 0 17 -13 36 -30 19 -16 31 -24 27 -17 -11 18 -7 17 108 -39 90
-43 108 -49 128 -39 21 10 22 10 5 -4 -18 -14 -18 -15 5 -27 13 -7 38 -24 56
-38 l32 -26 -36 -6 c-19 -3 -57 -2 -82 4 -26 5 -57 10 -69 11 -13 0 -23 5 -23
9 0 5 -4 6 -9 2 -5 -3 -12 -1 -16 5 -3 5 -14 10 -23 9 -12 0 -13 -2 -3 -6 11
-4 11 -7 0 -14 -9 -5 10 -19 59 -43 40 -19 79 -40 87 -46 20 -17 19 -50 -4
-109 -11 -27 -17 -52 -13 -57 4 -4 2 -4 -5 0 -7 3 -14 -2 -18 -13 -9 -31 -46
-32 -131 -5 -43 14 -98 27 -121 27 -22 1 -39 6 -35 11 3 5 -5 7 -16 4 -12 -4
-20 -2 -17 2 3 5 1 11 -5 15 -6 4 -7 11 -4 17 4 7 2 8 -5 4 -8 -5 -31 12 -62
45 l-51 54 29 24 28 24 -29 -7 c-20 -5 -32 -3 -37 6 -7 10 -9 10 -9 0 0 -10
-5 -10 -22 -1 -13 7 -26 17 -30 22 -10 17 40 37 91 37 27 0 41 4 33 8 -17 11
-4 42 14 35 8 -3 21 0 29 7 12 10 17 6 29 -22 22 -50 19 -16 -4 42 -24 61 -24
61 -5 54 11 -5 13 -2 9 10 -3 9 -11 16 -18 15 -18 -2 -56 13 -56 22 0 5 5 9
10 9 10 0 14 53 4 62 -3 3 -14 3 -26 0 -17 -4 -19 -10 -13 -36 25 -110 25
-107 -6 -125 -16 -9 -29 -20 -29 -24 0 -5 5 -5 10 -2 6 3 10 -1 10 -9 0 -20
-5 -20 -35 0 -14 9 -25 24 -25 33 0 9 -10 21 -22 26 -16 7 -24 20 -26 43 -3
34 38 192 66 252 9 19 15 41 14 48 -5 22 7 13 24 -19 19 -38 13 -67 -28 -126
l-30 -45 31 16 c37 20 38 15 9 -33 l-22 -36 24 16 c45 29 90 97 90 137 0 54
10 81 26 75 23 -8 18 -99 -6 -125 -11 -12 -20 -26 -20 -32 0 -5 6 -2 13 8 12
16 14 16 31 -3 28 -31 33 -26 32 28 -1 27 -4 47 -8 44 -5 -2 -8 14 -8 36 0 22
5 43 10 46 6 3 10 1 10 -5 0 -12 60 33 73 55 10 19 -2 45 -18 39 -7 -3 -18 4
-25 15 -12 23 -1 28 19 9 11 -11 12 -9 6 12 l-8 24 27 -18 c15 -9 32 -16 37
-14 5 2 -17 17 -50 33 -58 28 -75 49 -49 57 7 3 5 13 -7 31 l-18 28 31 -3 c27
-2 29 -4 19 -25z m164 9 c28 -23 11 -37 -19 -16 -22 15 -29 34 -13 34 5 0 19
-8 32 -18z m967 6 c13 -13 17 -68 5 -68 -17 0 -35 18 -29 28 3 6 1 12 -6 14
-13 5 -4 38 10 38 4 0 13 -5 20 -12z m-3883 -8 c3 -5 -1 -10 -9 -10 -9 0 -16
5 -16 10 0 6 4 10 9 10 6 0 13 -4 16 -10z m-175 -40 c0 -11 -4 -20 -10 -20 -5
0 -7 -8 -3 -17 4 -13 3 -15 -5 -8 -12 11 -4 65 9 65 5 0 9 -9 9 -20z m70 10
c0 -5 -2 -10 -4 -10 -3 0 -8 5 -11 10 -3 6 -1 10 4 10 6 0 11 -4 11 -10z
m2995 -12 c-6 11 -3 12 13 3 12 -6 24 -17 28 -24 6 -8 2 -8 -12 2 -10 7 -6 1
10 -13 37 -35 27 -43 -29 -21 -33 12 -45 21 -41 32 3 8 6 22 6 31 0 13 3 13
16 -4 8 -10 12 -13 9 -6z m-50 -8 c3 -5 1 -10 -4 -10 -6 0 -11 5 -11 10 0 6 2
10 4 10 3 0 8 -4 11 -10z m435 -45 c0 -34 -5 -47 -20 -55 -18 -10 -20 -8 -20
19 0 33 19 81 32 81 4 0 8 -20 8 -45z m-3430 25 c0 -5 -5 -10 -11 -10 -5 0 -7
5 -4 10 3 6 8 10 11 10 2 0 4 -4 4 -10z m77 4 c-3 -3 -12 -4 -19 -1 -8 3 -5 6
6 6 11 1 17 -2 13 -5z m-139 -39 c-3 -3 -9 2 -12 12 -6 14 -5 15 5 6 7 -7 10
-15 7 -18z m140 5 c10 -17 10 -23 -2 -35 -12 -13 -16 -11 -29 9 -12 17 -13 26
-4 35 15 15 20 14 35 -9z m2817 2 c-3 -3 -11 0 -18 7 -9 10 -8 11 6 5 10 -3
15 -9 12 -12z m-2985 -19 c0 -13 -3 -13 -15 -3 -8 7 -12 16 -9 21 8 13 24 1
24 -18z m2880 17 c0 -5 -5 -10 -11 -10 -5 0 -7 5 -4 10 3 6 8 10 11 10 2 0 4
-4 4 -10z m-2445 -10 c3 -6 -1 -7 -9 -4 -18 7 -21 14 -7 14 6 0 13 -4 16 -10z
m-321 -16 c3 -8 2 -12 -4 -9 -6 3 -10 10 -10 16 0 14 7 11 14 -7z m-24 -4 c0
-5 -2 -10 -4 -10 -3 0 -8 5 -11 10 -3 6 -1 10 4 10 6 0 11 -4 11 -10z m340 -5
c0 -1 -8 -5 -18 -7 -11 -3 -19 0 -19 7 0 7 8 10 19 7 10 -2 18 -6 18 -7z
m2466 -15 c12 0 12 -3 2 -20 -13 -20 -13 -20 -20 2 -3 13 -6 30 -6 38 0 10 2
9 5 -2 2 -10 11 -18 19 -18z m-2561 -1 c7 -20 -1 -39 -15 -39 -13 0 -40 30
-40 44 0 21 49 16 55 -5z m1219 0 c-6 -11 -24 -2 -24 11 0 5 7 7 15 4 8 -4 12
-10 9 -15z m82 -13 c0 -14 -4 -22 -8 -20 -4 3 -8 -4 -8 -15 0 -12 -4 -21 -10
-21 -5 0 -8 6 -6 13 1 6 1 9 -1 5 -8 -14 -23 -8 -23 9 0 14 -2 15 -12 4 -11
-10 -9 -15 7 -28 18 -14 18 -15 1 -9 -15 5 -17 2 -13 -14 3 -13 0 -20 -9 -20
-8 0 -14 9 -14 20 0 11 5 20 12 20 9 0 9 3 0 12 -14 14 -16 42 -3 33 5 -3 12
-1 16 4 4 7 15 7 31 1 23 -9 25 -8 19 10 -4 13 -2 20 7 20 8 0 14 -10 14 -24z
m2642 12 c13 -17 9 -61 -7 -66 -31 -10 -59 59 -28 71 20 8 24 8 35 -5z m-2601
-20 c-3 -8 -6 -5 -6 6 -1 11 2 17 5 13 3 -3 4 -12 1 -19z m172 -26 c-10 -16
-16 -18 -26 -10 -11 9 -10 14 4 30 22 24 39 8 22 -20z m1171 12 c0 -8 -4 -12
-10 -9 -5 3 -10 10 -10 16 0 5 5 9 10 9 6 0 10 -7 10 -16z m1960 -4 c0 -5 -4
-10 -10 -10 -5 0 -10 5 -10 10 0 6 5 10 10 10 6 0 10 -4 10 -10z m-3623 -40
c-4 -19 -2 -30 5 -30 6 0 8 -3 5 -6 -4 -4 -13 -2 -20 5 -16 12 -11 61 5 61 6
0 8 -13 5 -30z m160 4 c-3 -3 -12 -4 -19 -1 -8 3 -5 6 6 6 11 1 17 -2 13 -5z
m-257 -24 c16 -22 56 -29 44 -7 -4 6 2 3 14 -7 14 -12 19 -23 13 -30 -5 -6
-11 -20 -14 -31 -5 -20 -5 -20 -6 1 0 11 4 25 11 32 9 9 7 12 -10 12 -12 0
-22 -5 -22 -12 0 -6 -9 -2 -20 10 -12 12 -25 22 -30 22 -6 0 -10 7 -10 15 0
21 13 19 30 -5z m-205 0 c4 -6 11 -8 16 -5 5 3 6 -1 3 -9 -3 -9 -1 -16 5 -16
6 0 11 -4 11 -10 0 -5 -6 -7 -12 -4 -18 7 -51 54 -39 54 5 0 13 -5 16 -10z
m3438 -4 c6 -14 0 -26 -14 -26 -3 0 -9 9 -12 20 -6 23 18 28 26 6z m400 -12
c-3 -8 -9 -14 -13 -14 -13 0 -22 19 -15 30 9 14 34 0 28 -16z m-3643 -19 c7
-9 8 -15 2 -15 -5 0 -12 7 -16 15 -3 8 -4 15 -2 15 2 0 9 -7 16 -15z m2346
-50 c1 -22 -9 -25 -37 -8 -20 12 -27 23 -23 33 4 8 7 21 7 28 0 15 52 -37 53
-53z m-3440 30 c4 -14 4 -29 0 -32 -3 -3 -1 -12 5 -20 6 -7 9 -13 6 -13 -3 0
1 -16 9 -36 16 -39 8 -61 -19 -51 -16 6 -28 85 -14 94 4 3 2 15 -5 26 -15 23
-13 57 3 57 5 0 11 -11 15 -25z m814 15 c0 -5 -5 -10 -11 -10 -5 0 -7 5 -4 10
3 6 8 10 11 10 2 0 4 -4 4 -10z m230 0 c-8 -5 -19 -10 -25 -10 -5 0 -3 5 5 10
8 5 20 10 25 10 6 0 3 -5 -5 -10z m174 -6 c3 -8 2 -12 -4 -9 -6 3 -10 10 -10
16 0 14 7 11 14 -7z m-710 -9 c-4 -11 0 -15 16 -15 18 0 21 -4 16 -24 -4 -15
-1 -26 7 -29 6 -3 2 -6 -11 -6 -20 -1 -21 1 -12 20 13 23 4 41 -9 20 -6 -9
-10 -6 -15 12 -3 14 -14 28 -24 30 -10 3 -7 5 10 6 20 1 26 -3 22 -14z m76
-35 c0 -12 -7 -20 -16 -20 -13 0 -14 3 -5 13 6 8 8 17 4 20 -3 4 -1 7 5 7 7 0
12 -9 12 -20z m470 0 c0 -5 -7 -10 -16 -10 -8 0 -12 5 -9 10 3 6 10 10 16 10
5 0 9 -4 9 -10z m50 -10 c0 -5 -5 -10 -11 -10 -5 0 -7 5 -4 10 3 6 8 10 11 10
2 0 4 -4 4 -10z m2296 -40 c1 -26 -1 -28 -15 -18 -9 7 -5 0 8 -15 l24 -27 -28
-40 c-15 -22 -30 -40 -32 -40 -2 0 -2 4 1 9 3 5 -2 8 -12 7 -14 -1 -18 9 -20
52 -3 51 11 88 28 77 4 -3 10 2 14 10 10 26 31 16 32 -15z m-2355 -23 c-10 -9
-11 -8 -5 6 3 10 9 15 12 12 3 -3 0 -11 -7 -18z m-347 -37 c26 -9 27 -27 4
-57 -19 -25 -64 20 -52 52 7 18 14 18 48 5z m3619 -27 c-4 -10 -9 -11 -16 -4
-5 5 -7 18 -3 28 6 14 9 15 16 4 4 -8 6 -21 3 -28z m-873 -3 c0 -11 -4 -20 -9
-20 -5 0 -7 9 -4 20 3 11 7 20 9 20 2 0 4 -9 4 -20z m-2663 -84 c-4 -76 -12
-91 -27 -50 -8 21 -8 34 1 50 6 13 9 30 5 40 -4 9 -4 26 0 37 12 38 24 -7 21
-77z m3226 59 c-3 -8 -9 -15 -14 -15 -10 0 -12 24 -3 33 11 11 24 -3 17 -18z
m-3869 -11 c8 -22 8 -24 -6 -24 -6 0 -8 3 -5 7 4 3 2 12 -4 20 -7 8 -8 13 -1
13 5 0 13 -7 16 -16z m3836 -8 c0 -27 -28 -43 -36 -21 -9 21 3 45 21 45 9 0
15 -9 15 -24z m-3016 -12 c3 -9 2 -23 -3 -32 -5 -9 -5 -28 0 -46 10 -35 -5
-78 -26 -70 -6 3 -16 -5 -22 -17 -5 -14 -12 -18 -16 -12 -4 6 3 22 14 37 11
14 18 30 14 35 -3 5 -1 12 5 16 5 3 7 27 4 55 -4 40 -2 50 9 50 8 0 18 -7 21
-16z m2916 -20 c0 -24 -24 -43 -37 -30 -13 13 -9 51 6 57 23 9 31 2 31 -27z
m-2990 16 c12 -8 11 -10 -7 -10 -13 0 -23 5 -23 10 0 13 11 13 30 0z m3560
-24 c0 -33 -16 -42 -29 -17 -16 29 -13 41 9 41 15 0 20 -7 20 -24z m-4264 -4
c1 -7 0 -8 -3 -2 -7 16 -26 12 -20 -4 6 -14 -21 -32 -31 -21 -3 3 0 5 6 5 7 0
12 9 12 21 0 23 31 24 36 1z m3796 -21 c19 -18 19 -21 4 -36 -9 -9 -16 -21
-16 -26 0 -5 -8 -9 -19 -9 -25 0 -34 39 -15 67 18 28 19 28 46 4z m-202 -61
c0 -5 -4 -10 -10 -10 -5 0 -10 5 -10 10 0 6 5 10 10 10 6 0 10 -4 10 -10z
m-2461 -42 c36 -17 61 -33 55 -35 -8 -3 -8 -12 0 -36 16 -45 26 -58 38 -51 7
5 8 2 3 -7 -22 -38 -27 -40 -51 -18 l-23 22 4 -23 c5 -26 15 -40 15 -21 0 7 5
9 10 6 8 -5 7 -11 -1 -21 -9 -12 -15 -12 -28 -2 -14 11 -14 11 -3 -4 11 -13
10 -23 -3 -54 -8 -20 -22 -67 -31 -103 -17 -77 -38 -113 -59 -105 -9 4 -15 0
-15 -10 0 -9 -4 -16 -10 -16 -5 0 -10 -6 -10 -13 0 -8 -27 -40 -60 -71 l-60
-58 -67 4 -67 3 -13 45 c-18 62 -44 120 -55 120 -5 0 -6 5 -3 10 3 6 1 10 -5
10 -7 0 -10 6 -8 12 3 7 -1 19 -9 26 -7 8 -10 19 -6 25 4 7 -2 5 -12 -3 -17
-14 -18 -14 -6 9 7 13 9 21 4 18 -5 -3 -14 3 -21 14 -7 11 -8 19 -2 19 5 0 10
7 10 15 0 8 -6 15 -14 15 -25 0 -27 17 -5 54 20 34 20 36 3 30 -17 -5 -17 -4
-3 8 16 13 29 43 33 77 2 9 13 21 25 27 12 6 32 20 44 31 58 54 144 81 261 82
68 1 86 -3 145 -31z m1251 28 c0 -3 -4 -8 -10 -11 -5 -3 -10 -1 -10 4 0 6 5
11 10 11 6 0 10 -2 10 -4z m1825 -16 c0 -7 -6 -15 -12 -17 -8 -3 -13 4 -13 17
0 13 5 20 13 18 6 -3 12 -11 12 -18z m-4421 -55 c3 -8 1 -15 -4 -15 -6 0 -10
7 -10 15 0 8 2 15 4 15 2 0 6 -7 10 -15z m1910 -3 c46 -17 48 -19 51 -57 1
-22 0 -34 -2 -27 -7 20 -26 14 -20 -7 3 -14 1 -18 -9 -14 -8 3 -14 1 -14 -4 0
-5 -6 -10 -12 -11 -125 -11 -159 -18 -218 -48 -26 -13 -53 -24 -59 -24 -6 0
-11 -4 -11 -8 0 -5 -36 -26 -81 -46 -51 -24 -78 -41 -72 -47 6 -6 21 -6 39 1
60 24 138 30 217 19 42 -6 80 -16 84 -23 3 -6 3 -8 -2 -4 -4 4 -13 2 -20 -5
-8 -7 -35 -30 -62 -52 -70 -56 -118 -118 -165 -211 -36 -73 -48 -87 -114 -134
-89 -64 -139 -118 -219 -234 -33 -48 -73 -105 -89 -126 l-30 -39 -28 17 c-35
20 -70 56 -47 47 10 -4 14 3 14 25 0 16 -3 30 -8 30 -4 0 -1 13 8 30 19 38 19
49 -1 24 -15 -19 -16 -19 -9 1 4 11 10 31 15 45 16 55 115 240 175 330 77 114
137 179 200 215 32 19 43 31 36 38 -7 7 -17 5 -31 -8 -11 -10 -23 -15 -27 -12
-3 4 -14 0 -24 -9 -26 -23 -31 -3 -15 63 19 85 31 105 106 182 72 74 140 96
310 99 59 1 100 -4 134 -16z m116 4 c0 -8 3 -22 6 -30 6 -15 3 -14 -24 1 -27
15 -28 19 -14 30 22 16 32 16 32 -1z m-1156 -12 c7 -19 -2 -37 -15 -29 -12 8
-12 45 0 45 5 0 12 -7 15 -16z m1276 -13 c0 -6 -4 -12 -8 -15 -5 -3 -9 1 -9 9
0 8 4 15 9 15 4 0 8 -4 8 -9z m159 6 c-2 -1 -13 -9 -24 -17 -19 -14 -19 -14
-6 3 7 9 18 17 24 17 6 0 8 -1 6 -3z m201 -7 c0 -5 -5 -10 -11 -10 -5 0 -7 5
-4 10 3 6 8 10 11 10 2 0 4 -4 4 -10z m-414 -42 c3 -4 -1 -5 -10 -4 -8 1 -18
5 -22 8 -3 4 1 5 10 4 8 -1 18 -5 22 -8z m27 -23 c-3 -9 -8 -14 -10 -11 -3 3
-2 9 2 15 9 16 15 13 8 -4z m-1280 -8 c3 -7 -3 -13 -14 -14 -15 -1 -16 1 -6
12 15 18 14 18 20 2z m1194 -2 c0 -8 -4 -12 -9 -9 -5 3 -6 10 -3 15 9 13 12
11 12 -6z m63 -5 c6 -11 8 -20 6 -20 -3 0 -10 9 -16 20 -6 11 -8 20 -6 20 3 0
10 -9 16 -20z m122 -32 c-3 -24 -6 -55 -6 -70 -1 -25 -5 -28 -34 -28 -27 0
-35 5 -46 31 -18 43 -10 72 17 63 15 -5 19 -3 14 8 -3 9 1 15 9 15 8 0 14 -7
15 -16 0 -9 5 -4 11 12 15 41 26 33 20 -15z m445 0 c0 -13 -1 -17 -4 -10 -3 6
-10 9 -16 5 -7 -4 -6 1 2 10 17 21 17 21 18 -5z m-310 -25 c-3 -10 -5 -4 -5
12 0 17 2 24 5 18 2 -7 2 -21 0 -30z m1849 2 c23 -44 11 -69 -36 -73 -32 -3
-50 9 -50 35 0 13 48 73 59 73 4 0 16 -16 27 -35z m-1879 3 c-3 -8 -6 -5 -6 6
-1 11 2 17 5 13 3 -3 4 -12 1 -19z m-2257 -38 c0 -5 -4 -10 -10 -10 -5 0 -10
5 -10 10 0 6 5 10 10 10 6 0 10 -4 10 -10z m2520 -15 c13 -14 21 -25 18 -25
-2 0 -15 11 -28 25 -13 14 -21 25 -18 25 2 0 15 -11 28 -25z m-500 -7 c0 -4
-15 -8 -32 -7 -26 0 -29 2 -13 8 25 10 45 10 45 -1z m491 -25 c13 -16 12 -17
-3 -4 -17 13 -22 21 -14 21 2 0 10 -8 17 -17z m-961 -19 c0 -2 -9 0 -20 6 -11
6 -20 13 -20 16 0 2 9 0 20 -6 11 -6 20 -13 20 -16z m559 15 c66 -10 162 -52
218 -95 34 -26 48 -31 37 -13 -8 14 22 -2 51 -26 19 -16 18 -16 -8 0 -42 24
-44 11 -4 -19 41 -31 47 -32 42 -6 -2 12 0 18 6 14 6 -3 8 -15 6 -25 -9 -35
166 -156 390 -268 115 -57 203 -92 213 -86 9 5 133 -36 176 -58 58 -30 155
-108 148 -119 -4 -6 -3 -8 3 -5 10 6 50 -32 91 -87 13 -16 22 -43 22 -63 0
-32 -24 -90 -43 -104 -5 -3 -9 -10 -9 -15 -1 -12 -8 -34 -18 -59 -5 -11 -19
-56 -31 -100 -11 -44 -23 -83 -25 -86 -2 -4 -5 -73 -7 -155 -1 -82 -6 -155
-11 -162 -8 -14 -10 -12 -85 74 -47 55 -54 78 -47 169 4 55 3 75 -4 65 -5 -8
-10 -54 -10 -101 0 -79 2 -89 29 -125 15 -21 38 -48 50 -58 25 -22 28 -56 5
-56 -9 0 -29 9 -45 20 -15 12 -48 30 -73 41 l-45 19 13 43 c8 23 19 57 26 75
8 22 10 72 7 159 -6 145 3 213 39 296 34 77 41 149 20 219 -20 70 -46 103
-107 133 -27 14 -49 23 -49 20 0 -2 17 -13 39 -24 78 -40 122 -132 87 -183 -9
-12 -16 -27 -16 -33 1 -5 8 2 16 18 20 37 28 34 20 -8 -12 -62 -63 -142 -120
-185 -17 -13 2 21 72 128 8 12 13 24 11 27 -3 2 -31 -38 -64 -89 -45 -69 -68
-97 -91 -105 -48 -17 -82 -14 -89 9 -5 16 -12 19 -28 14 -19 -6 -20 -5 -8 10
7 9 10 17 5 17 -5 1 -16 2 -24 3 -8 0 -19 11 -25 23 -20 40 -60 73 -83 68 -12
-2 -24 0 -27 5 -3 5 -15 6 -29 0 -31 -11 -53 2 -31 20 12 10 13 16 4 26 -6 8
-8 14 -3 14 5 0 1 5 -9 11 -9 6 -15 14 -13 18 3 4 -4 8 -15 8 -33 3 -51 24
-47 55 3 15 2 26 0 23 -3 -3 -12 1 -21 8 -14 10 -14 10 -3 -4 10 -14 10 -18
-5 -24 -10 -5 -22 -7 -27 -6 -4 1 -14 -3 -21 -9 -8 -7 -15 -7 -19 -1 -4 5 3
13 15 16 12 4 18 12 15 21 -3 8 1 14 10 14 10 0 14 6 11 15 -5 11 -1 12 20 4
20 -7 28 -6 40 8 8 10 11 12 7 4 -4 -8 -2 -12 5 -10 23 8 16 21 -24 45 -22 13
-48 28 -57 34 -10 6 -18 8 -18 4 0 -4 -9 4 -21 17 -11 13 -25 25 -30 25 -20 3
-21 4 -12 17 16 21 15 67 -2 67 -11 0 -12 -5 -5 -25 12 -33 -12 -45 -39 -21
-24 21 -38 4 -15 -18 8 -9 11 -16 5 -16 -19 0 -12 -15 11 -25 12 -6 24 -16 26
-24 3 -9 0 -11 -8 -6 -10 6 -11 4 -4 -6 15 -25 10 -44 -19 -61 -31 -20 -63
-23 -72 -8 -4 6 -11 8 -16 4 -11 -7 -41 15 -35 25 3 4 -4 7 -15 8 -10 1 -30
13 -45 28 -17 17 -32 24 -45 20 -14 -5 -19 -2 -19 12 0 14 -2 15 -9 4 -6 -9
-11 -10 -15 -2 -4 6 -14 11 -22 11 -16 0 -21 -65 -5 -74 5 -3 11 -16 14 -28 6
-22 5 -22 -8 -4 -8 11 -18 16 -22 12 -16 -15 71 -74 170 -116 32 -13 46 -24
41 -32 -5 -8 -2 -9 9 -5 10 3 17 3 17 -1 0 -4 12 -20 26 -35 19 -20 24 -35 20
-52 -3 -12 1 -36 9 -51 8 -16 15 -34 15 -41 0 -6 10 -19 22 -27 24 -17 25 -14
-23 -108 -5 -10 -9 -34 -9 -53 0 -19 -5 -35 -11 -35 -5 0 -7 6 -3 13 5 9 4 9
-6 0 -13 -12 -5 -37 10 -28 5 3 11 1 14 -4 4 -5 2 -12 -4 -16 -14 -9 -12 -25
3 -25 9 0 13 16 13 52 -1 32 4 53 12 55 7 3 10 -1 6 -11 -4 -10 -1 -16 7 -16
11 0 11 -3 -1 -11 -13 -9 -13 -10 0 -6 9 2 14 15 14 35 -1 20 4 33 15 37 13 5
12 9 -8 20 l-24 13 21 6 c33 11 51 54 45 109 -4 36 -2 47 8 48 8 1 31 2 52 4
28 3 62 -8 138 -44 55 -26 96 -51 92 -55 -4 -4 3 -5 17 -1 16 3 39 -2 65 -15
21 -11 44 -20 49 -20 5 0 47 -19 93 -41 110 -55 127 -82 128 -196 0 -55 -4
-86 -13 -95 -11 -11 -12 -8 -7 17 3 17 -11 -6 -33 -50 -22 -44 -47 -89 -55
-100 -9 -11 4 21 28 70 24 50 47 104 50 120 3 17 2 24 -1 18 -3 -7 -13 -13
-22 -13 -15 0 -15 -2 -2 -10 12 -8 8 -21 -24 -88 -21 -43 -47 -89 -57 -103
l-19 -24 9 32 c5 17 7 34 4 36 -2 3 0 13 5 24 5 10 14 29 20 43 6 14 22 52 36
84 15 32 25 61 22 63 -2 2 -23 -40 -46 -94 -73 -167 -108 -203 -196 -203 -58
0 -101 17 -110 43 -3 11 -12 16 -20 13 -8 -3 -14 -2 -14 3 0 4 -29 23 -65 41
-36 18 -70 39 -76 46 -6 8 -15 12 -19 9 -4 -2 -22 10 -41 27 -19 19 -28 33
-21 36 7 2 12 16 12 30 -1 27 -1 27 -18 6 -10 -11 -23 -19 -30 -16 -6 2 -12
-3 -12 -12 0 -19 -11 -21 -28 -4 -7 7 -12 9 -12 5 0 -4 -23 5 -50 19 -49 26
-50 27 -44 62 4 19 3 32 -2 29 -7 -4 -10 61 -5 106 2 16 21 6 21 -12 0 -22 16
-36 24 -22 7 10 -11 54 -37 93 -10 14 -19 40 -19 58 -1 39 -18 51 -19 13 l-1
-28 -12 27 -12 28 -13 -36 c-11 -30 -10 -38 4 -61 15 -22 17 -40 11 -102 -3
-41 -11 -80 -16 -85 -7 -7 -10 -6 -10 2 0 6 -15 18 -32 27 -18 8 -53 33 -78
55 -25 22 -50 40 -55 40 -6 0 -21 14 -35 31 -14 17 -30 37 -37 44 -7 7 -9 23
-6 36 6 21 4 22 -9 11 -14 -11 -17 -8 -22 21 -4 19 -4 42 0 51 3 9 1 16 -5 16
-6 0 -11 -19 -11 -45 0 -46 -4 -51 -29 -36 -17 11 -19 67 -4 121 l9 34 17 -24
c15 -21 19 -23 27 -10 8 12 10 11 10 -7 0 -25 7 -28 29 -14 12 8 13 14 3 36
-7 15 -10 30 -7 35 3 5 -2 16 -11 25 -19 19 -21 104 -3 147 8 19 8 32 0 45
-10 17 -10 17 -11 -3 0 -11 -6 -29 -14 -39 -14 -19 -15 -19 -24 5 -5 14 -20
58 -32 99 -19 61 -21 74 -9 82 34 21 50 6 55 -50 6 -68 7 -71 21 -59 9 7 17 7
26 -1 8 -6 17 -8 21 -4 3 4 12 -1 19 -10 14 -18 59 -27 63 -12 2 6 -21 21 -52
34 -69 30 -90 63 -74 119 14 51 13 59 -5 36 -8 -10 -15 -14 -15 -7 0 15 -27 7
-53 -15 -16 -14 -20 -13 -46 19 -16 19 -41 47 -55 62 -25 27 -27 47 -5 47 20
0 37 27 41 66 3 21 7 46 9 54 2 8 -2 15 -8 16 -7 1 -16 2 -20 3 -4 0 -2 6 4
12 12 12 -2 68 -20 81 -14 9 51 35 131 52 83 18 110 19 191 5z m1861 -4 c138
-1 144 -2 175 -31 l28 -26 -24 -20 c-25 -21 -25 -21 33 5 37 17 73 14 61 -6
-3 -6 -1 -7 5 -3 6 4 26 -6 43 -22 l33 -29 -110 -37 c-60 -21 -134 -42 -164
-47 -152 -27 -176 -38 -159 -73 9 -19 9 -19 -4 -4 -9 11 -21 15 -36 11 -14 -4
-26 -1 -32 8 -4 8 -14 14 -21 14 -7 1 -12 6 -11 12 2 7 -11 23 -28 37 l-30 25
23 15 c13 8 84 22 158 32 126 16 202 32 158 33 -10 1 -18 5 -18 9 0 10 -75 29
-147 38 -52 6 -113 -10 -113 -30 0 -6 -5 -5 -12 2 -9 9 -15 9 -27 -1 -11 -9
-13 -9 -8 0 5 8 -8 22 -35 39 -43 27 -40 45 4 24 22 -11 22 -10 4 4 -11 9 -25
17 -30 17 -6 1 3 5 19 10 17 4 62 5 100 1 39 -3 113 -6 165 -7z m-3903 -17
c-3 -8 -6 -5 -6 6 -1 11 2 17 5 13 3 -3 4 -12 1 -19z m1419 7 c-11 -8 -25 -15
-30 -15 -6 1 0 7 14 15 32 19 40 18 16 0z m819 -43 c-3 -3 -11 0 -18 7 -9 10
-8 11 6 5 10 -3 15 -9 12 -12z m62 -18 c-11 -11 -40 -6 -42 7 -2 13 1 14 20 5
13 -6 23 -12 22 -12z m1347 10 c9 -3 16 -11 16 -17 0 -7 -4 -7 -12 1 -14 14
-32 16 -24 4 3 -5 -1 -9 -9 -9 -11 0 -12 4 -4 14 13 15 12 15 33 7z m761 -13
c3 -11 -1 -36 -10 -56 -13 -32 -17 -35 -30 -25 -20 17 -19 46 3 75 21 30 29
31 37 6z m-3888 -14 c-1 -5 -5 -7 -8 -5 -3 2 -13 -3 -22 -10 -18 -15 -37 -8
-37 13 0 8 12 13 35 12 20 -1 34 -5 32 -10z m1183 -13 c6 -14 10 -54 10 -90 0
-57 -3 -68 -29 -94 -35 -37 -44 -37 -66 -4 -19 29 -19 29 13 38 15 5 22 3 23
-6 0 -7 6 3 14 22 7 19 17 34 22 33 5 -1 10 4 10 12 0 8 -4 12 -9 9 -8 -5 -12
17 -9 44 2 15 -25 16 -35 0 -4 -7 -3 -8 4 -4 20 12 14 -22 -5 -34 -16 -10 -16
-11 -1 -6 29 9 16 -34 -15 -51 -44 -22 -61 -11 -54 38 4 30 16 52 43 80 44 45
71 49 84 13z m2004 -2 c3 -5 -1 -9 -9 -9 -8 0 -12 4 -9 9 3 4 7 8 9 8 2 0 6
-4 9 -8z m551 -2 c3 -5 2 -10 -4 -10 -5 0 -13 5 -16 10 -3 6 -2 10 4 10 5 0
13 -4 16 -10z m-308 -6 c-3 -3 -12 -4 -19 -1 -8 3 -5 6 6 6 11 1 17 -2 13 -5z
m-1520 -31 c1 -22 -1 -24 -8 -10 -6 9 -7 22 -4 27 9 14 10 13 12 -17z m1858
-33 c-3 -5 -12 -10 -18 -10 -7 0 -6 4 3 10 19 12 23 12 15 0z m-3131 -15 c-4
-8 -11 -15 -16 -15 -6 0 -5 6 2 15 7 8 14 15 16 15 2 0 1 -7 -2 -15z m3131 -7
c3 4 5 0 3 -8 -1 -8 3 -14 10 -12 6 1 11 -1 11 -5 -4 -22 5 -32 42 -48 24 -11
47 -31 56 -49 l15 -31 -29 28 c-32 30 -55 37 -31 10 8 -10 15 -29 16 -43 1
-14 -2 -20 -6 -13 -7 11 -106 -1 -212 -26 -25 -6 -68 -11 -97 -11 -57 0 -86
-8 -77 -21 3 -5 -1 -6 -9 -3 -8 3 -18 1 -22 -5 -3 -6 -12 -11 -18 -11 -17 0
-88 70 -82 80 3 5 1 11 -5 15 -12 8 -13 25 -1 25 5 0 28 -19 51 -42 31 -31 38
-35 25 -15 -10 15 -27 32 -37 38 -32 17 -14 22 95 29 96 6 200 31 212 50 3 4
-5 6 -16 3 -15 -4 -9 6 22 35 33 30 48 38 60 31 9 -4 20 -5 24 -1z m420 2 c3
-5 -1 -10 -9 -10 -9 0 -16 5 -16 10 0 6 4 10 9 10 6 0 13 -4 16 -10z m-2244
-23 c-10 -9 -11 -8 -5 6 3 10 9 15 12 12 3 -3 0 -11 -7 -18z m1149 3 c-6 -11
-13 -20 -16 -20 -2 0 0 9 6 20 6 11 13 20 16 20 2 0 0 -9 -6 -20z m582 -12
c-8 -8 -9 -4 -5 13 4 13 8 18 11 10 2 -7 -1 -18 -6 -23z m-3063 9 c-2 -1 -15
-11 -29 -22 l-25 -20 19 23 c11 12 24 22 29 22 6 0 8 -1 6 -3z m1386 -35 c-3
-3 -11 0 -18 7 -9 10 -8 11 6 5 10 -3 15 -9 12 -12z m1175 -5 c0 -2 -8 -3 -18
-3 -10 0 -19 6 -19 13 0 8 6 9 19 2 10 -5 18 -11 18 -12z m-3293 -13 c-9 -9
-28 6 -21 18 4 6 10 6 17 -1 6 -6 8 -13 4 -17z m1158 16 c3 -5 -1 -10 -9 -10
-9 0 -16 5 -16 10 0 6 4 10 9 10 6 0 13 -4 16 -10z m2042 -12 c-3 -8 -6 -5 -6
6 -1 11 2 17 5 13 3 -3 4 -12 1 -19z m-96 -25 c-12 -20 -14 -14 -5 12 4 9 9
14 11 11 3 -2 0 -13 -6 -23z m132 7 c-3 -11 -7 -20 -9 -20 -2 0 -4 9 -4 20 0
11 4 20 9 20 5 0 7 -9 4 -20z m851 -2 c16 -27 18 -77 4 -95 -14 -17 -38 -17
-38 0 0 7 -8 29 -19 49 -16 33 -17 38 -2 52 21 22 38 20 55 -6z m-2904 -3 c7
-8 8 -15 2 -15 -5 0 -15 7 -22 15 -7 8 -8 15 -2 15 5 0 15 -7 22 -15z m1862
-2 c11 -10 18 -30 18 -54 0 -21 5 -41 11 -44 12 -8 30 -51 34 -83 2 -12 -1
-20 -5 -17 -5 3 -7 12 -4 20 4 10 -6 8 -36 -8 l-41 -22 -18 22 c-10 12 -22 19
-26 15 -5 -4 -5 -1 -1 6 14 24 -2 57 -34 69 -16 6 -30 18 -30 27 0 19 -11 20
-29 4 -8 -7 -6 0 4 15 21 32 79 66 114 67 14 0 33 -7 43 -17z m-847 -11 c-3
-3 -11 0 -18 7 -9 10 -8 11 6 5 10 -3 15 -9 12 -12z m595 8 c0 -5 -2 -10 -4
-10 -3 0 -8 5 -11 10 -3 6 -1 10 4 10 6 0 11 -4 11 -10z m-2143 -6 c-3 -3 -12
-4 -19 -1 -8 3 -5 6 6 6 11 1 17 -2 13 -5z m3674 -7 c-1 -12 -15 -9 -19 4 -3
6 1 10 8 8 6 -3 11 -8 11 -12z m-3186 -7 c7 -11 -11 -40 -25 -40 -4 0 -5 11
-2 25 5 26 16 32 27 15z m-75 -27 c0 -19 -3 -24 -10 -17 -6 6 -8 18 -4 27 9
24 14 21 14 -10z m-460 3 c0 -2 -8 -10 -17 -17 -16 -13 -17 -12 -4 4 13 16 21
21 21 13z m26 -11 c-1 -8 -5 -17 -8 -21 -5 -4 -4 16 1 34 3 9 9 -1 7 -13z
m578 -1 c9 -24 2 -26 -12 -4 -7 11 -8 20 -3 20 5 0 12 -7 15 -16z m-655 -1
c-1 -16 -92 -74 -106 -68 -14 5 -14 3 -2 -12 12 -15 12 -16 -5 -10 -16 6 -17
5 -6 -8 10 -12 10 -15 -2 -15 -8 0 -20 6 -28 13 -8 6 -6 2 4 -10 18 -21 18
-23 -1 -50 -11 -15 -26 -44 -33 -63 -16 -39 -39 -61 -55 -52 -5 3 -3 -2 5 -13
28 -34 15 -117 -13 -88 -4 4 -22 7 -40 8 -17 0 -50 2 -73 3 l-40 2 -11 63 c-6
35 -7 72 -2 85 5 14 5 22 -2 22 -6 0 -6 7 1 21 7 11 9 27 6 34 -7 20 85 101
130 115 64 20 275 37 273 23z m765 -34 c49 -38 22 -65 -39 -37 -36 16 -32 52
6 57 4 1 18 -8 33 -20z m2673 -4 c11 -8 24 -27 27 -41 4 -15 33 -51 64 -81 31
-29 53 -52 47 -51 -5 1 -22 -6 -37 -16 -39 -25 -112 -14 -199 30 -14 7 -29 10
-33 7 -4 -4 -4 0 -1 9 4 9 1 19 -5 23 -6 3 -10 3 -9 -2 7 -40 -30 -73 -80 -73
-57 0 -90 15 -102 47 -9 25 -7 31 17 51 19 17 30 20 37 13 6 -6 16 -11 22 -11
5 0 3 4 -5 10 -8 5 -11 12 -8 16 11 11 59 13 52 3 -3 -5 -10 -7 -15 -4 -18 12
-9 -2 18 -26 25 -22 26 -22 9 -1 -22 26 -19 27 20 7 16 -8 36 -15 44 -15 17 0
43 36 35 49 -2 5 3 8 12 7 9 0 26 13 37 31 24 37 25 38 53 18z m-2872 -25 c-4
-20 -3 -30 5 -30 6 0 8 -4 5 -10 -4 -6 8 -10 30 -10 22 0 34 -4 30 -10 -3 -5
-25 -10 -49 -10 -30 0 -48 -6 -61 -20 -10 -11 -25 -20 -33 -20 -12 0 -9 7 10
28 15 15 31 46 38 70 12 48 35 59 25 12z m-97 -25 c-7 -7 -26 -15 -43 -19
l-30 -7 40 35 c31 26 41 31 43 19 2 -8 -2 -21 -10 -28z m168 31 c18 -19 18
-32 -1 -40 -29 -11 -44 3 -31 30 13 28 13 28 32 10z m2854 10 c0 -3 -4 -8 -10
-11 -5 -3 -10 -1 -10 4 0 6 5 11 10 11 6 0 10 -2 10 -4z m-4370 -16 c0 -5 -4
-10 -10 -10 -5 0 -10 5 -10 10 0 6 5 10 10 10 6 0 10 -4 10 -10z m3806 -12
c19 -23 19 -23 -2 -5 -11 9 -24 14 -29 10 -4 -5 -5 -2 -1 5 9 16 10 16 32 -10z
m-4036 -9 c0 -6 -4 -7 -10 -4 -5 3 -10 11 -10 16 0 6 5 7 10 4 6 -3 10 -11 10
-16z m3967 -11 c-3 -8 -6 -5 -6 6 -1 11 2 17 5 13 3 -3 4 -12 1 -19z m630 0
c-3 -8 -6 -5 -6 6 -1 11 2 17 5 13 3 -3 4 -12 1 -19z m-4037 -4 c0 -8 -4 -12
-10 -9 -5 3 -10 10 -10 16 0 5 5 9 10 9 6 0 10 -7 10 -16z m3706 1 c-11 -8
-25 -15 -30 -15 -6 1 0 7 14 15 32 19 40 18 16 0z m-2406 -19 c23 -45 -7 -130
-34 -94 -6 8 -19 17 -28 21 -20 7 -25 57 -6 57 7 0 25 -12 42 -27 l29 -28 -27
37 c-27 36 -28 58 -2 58 7 0 18 -11 26 -24z m2324 -18 c-9 -14 -23 2 -17 18 4
12 8 13 14 3 4 -7 5 -17 3 -21z m229 15 c-7 -2 -19 -2 -25 0 -7 3 -2 5 12 5
14 0 19 -2 13 -5z m-3757 -51 c-15 -28 -46 -163 -47 -204 l0 -23 -10 24 c-5
14 -7 39 -4 55 11 52 57 176 67 176 5 0 2 -13 -6 -28z m4180 14 c6 -16 -12
-56 -25 -56 -16 0 -21 30 -8 50 14 24 26 25 33 6z m-4386 -6 c12 -8 12 -10 -4
-16 -11 -4 -24 0 -34 10 -15 15 -15 16 3 16 11 0 27 -4 35 -10z m2965 -49 c8
-36 7 -36 -48 1 l-27 20 22 18 c28 23 42 12 53 -39z m195 49 c0 -5 -2 -10 -4
-10 -3 0 -8 5 -11 10 -3 6 -1 10 4 10 6 0 11 -4 11 -10z m-1887 -20 c23 -33
104 -81 137 -82 17 -1 30 -6 30 -14 0 -7 7 -20 16 -29 12 -11 14 -25 10 -48
-4 -18 -9 -50 -12 -72 -2 -22 -10 -57 -17 -77 l-13 -37 -34 30 c-31 29 -35 30
-46 14 -11 -14 -22 -16 -66 -10 -57 8 -64 7 -62 -12 1 -9 -3 -10 -16 -3 -32
17 -28 34 12 52 21 9 38 21 38 26 0 20 -15 21 -36 1 -13 -12 -29 -19 -37 -16
-19 7 -6 90 22 137 11 19 22 59 25 88 8 76 22 91 49 52z m222 -32 c8 -18 14
-26 15 -18 0 9 8 3 20 -15 21 -33 21 -89 -1 -140 l-13 -30 -6 40 c-3 22 -13
57 -23 77 -16 35 -24 118 -12 118 3 0 12 -15 20 -32z m-551 7 c-4 -8 -11 -15
-16 -15 -6 0 -5 6 2 15 7 8 14 15 16 15 2 0 1 -7 -2 -15z m3027 -12 c13 -16
12 -17 -3 -4 -17 13 -22 21 -14 21 2 0 10 -8 17 -17z m-2791 -67 c0 -21 -28
-46 -51 -46 -26 0 -24 25 3 44 28 20 48 20 48 2z m2506 -8 c4 -6 3 -8 -3 -5
-6 4 -14 0 -17 -9 -4 -9 -9 -14 -13 -11 -3 4 0 13 7 22 15 18 17 18 26 3z
m-2745 -42 c5 3 9 -7 9 -23 -1 -27 -1 -27 -15 -9 -8 11 -15 27 -14 35 0 11 2
12 6 3 2 -6 9 -10 14 -6z m155 -13 c-10 -10 -19 5 -10 18 6 11 8 11 12 0 2 -7
1 -15 -2 -18z m-96 -19 c0 -7 5 -16 12 -20 7 -4 8 -3 4 4 -4 7 -3 12 3 12 15
0 41 -42 41 -67 0 -23 0 -23 -32 -7 -18 9 -43 25 -56 35 -21 16 -22 18 -5 28
10 6 12 11 6 11 -7 0 -13 6 -13 14 0 9 7 12 20 9 11 -3 20 -11 20 -19z m2790
21 c0 -1 -11 -12 -25 -25 l-25 -23 12 25 c7 13 18 25 25 25 7 0 13 -1 13 -2z
m-1593 -25 c-4 -27 -17 -38 -17 -13 0 18 8 33 17 33 1 0 2 -9 0 -20z m1534 -3
c-10 -9 -11 -8 -5 6 3 10 9 15 12 12 3 -3 0 -11 -7 -18z m-3781 -2 c14 -17 4
-55 -14 -55 -21 0 -36 24 -29 48 6 25 25 29 43 7z m863 -22 c-4 -23 -23 -49
-65 -89 -32 -31 -57 -58 -55 -61 3 -2 30 21 61 51 57 56 71 56 37 -1 -19 -31
-19 -31 1 -36 11 -3 17 -10 13 -16 -3 -6 -2 -11 4 -11 7 0 6 -10 -1 -31 -6
-16 -7 -33 -3 -37 4 -4 10 -1 12 6 3 6 10 9 15 6 6 -4 8 -2 5 3 -23 37 127 68
186 38 36 -18 44 -15 20 7 -19 16 -133 32 -133 19 0 -4 -9 -7 -21 -6 -22 2
-41 24 -32 38 3 5 1 12 -4 16 -12 7 21 91 37 91 5 0 10 -4 10 -10 0 -5 11 -10
24 -10 28 0 79 -61 58 -68 -22 -7 -13 -20 22 -32 36 -12 74 -46 63 -57 -4 -3
-1 -13 7 -22 20 -24 28 -88 10 -95 -8 -3 -14 -14 -14 -25 0 -11 -6 -21 -12
-24 -7 -2 -9 -8 -5 -13 5 -5 13 -1 18 9 13 23 35 22 42 -2 5 -19 -9 -41 -26
-41 -5 0 -15 6 -22 14 -12 12 -19 12 -49 -2 -19 -9 -35 -18 -34 -21 0 -3 0
-13 -2 -21 -1 -11 -4 -9 -10 5 -8 19 -9 19 -9 -2 -1 -22 -21 -34 -21 -12 0 5
-4 7 -10 4 -13 -8 -13 8 -1 21 6 5 -17 9 -65 9 -73 1 -74 0 -73 -25 1 -18 3
-20 6 -7 4 16 8 14 28 -13 13 -17 25 -26 28 -20 3 6 4 5 3 -2 -4 -17 -58 -17
-71 0 -7 9 -8 38 -4 80 8 75 5 85 -21 77 -23 -7 -34 20 -15 39 25 24 17 31 -8
7 -20 -18 -28 -20 -51 -11 -44 16 -70 12 -114 -20 l-41 -30 10 28 c12 33 69
93 80 86 5 -3 6 1 4 9 -5 11 51 81 132 165 13 12 30 37 39 53 19 37 23 35 17
-8z m1407 27 c0 -5 -5 -10 -11 -10 -5 0 -7 5 -4 10 3 6 8 10 11 10 2 0 4 -4 4
-10z m-1084 -70 c3 -61 0 -67 -25 -51 -10 6 -12 20 -7 47 17 93 27 95 32 4z
m1027 28 c8 -28 1 -36 -8 -9 -3 11 -14 22 -23 24 -13 4 -12 5 4 6 14 1 24 -6
27 -21z m-1809 -24 c55 -2 134 -23 204 -55 24 -11 48 -16 54 -13 6 4 8 2 5 -3
-4 -6 0 -14 9 -17 13 -5 12 -10 -6 -37 -21 -28 -26 -30 -62 -24 -31 6 -39 4
-33 -5 6 -10 1 -11 -19 -6 -14 3 -47 9 -74 13 -26 3 -49 10 -52 14 -3 5 -24
11 -45 15 -53 8 -105 48 -105 79 0 18 4 23 15 19 8 -4 23 -3 32 0 12 5 14 9 5
18 -18 18 -14 32 4 17 9 -7 40 -14 68 -15z m3376 -4 c0 -5 -5 -10 -11 -10 -5
0 -7 5 -4 10 3 6 8 10 11 10 2 0 4 -4 4 -10z m-1629 -38 c-31 -5 -51 4 -51 23
0 13 5 12 37 -3 32 -15 33 -17 14 -20z m-1093 8 c7 -11 11 -20 9 -20 -2 0 -12
9 -22 20 -10 11 -14 20 -9 20 5 0 15 -9 22 -20z m472 -61 c-7 -16 -16 -29 -21
-29 -15 0 -10 43 8 62 22 25 29 7 13 -33z m695 29 c31 -14 32 -25 3 -24 -26 1
-48 17 -41 29 6 9 7 9 38 -5z m2068 -4 c8 -8 -3 -34 -14 -34 -5 0 -9 9 -9 20
0 19 11 26 23 14z m-3099 -60 c9 -3 16 -14 16 -23 0 -13 2 -13 9 -2 7 12 17
11 60 -5 54 -19 61 -27 35 -42 -14 -8 -14 -10 0 -21 9 -8 16 -10 16 -6 0 4 7
2 15 -5 8 -7 12 -16 9 -21 -3 -5 2 -9 10 -9 8 0 26 -11 38 -25 19 -20 23 -35
22 -74 -1 -27 -5 -54 -8 -60 -4 -5 -2 -12 4 -16 5 -3 10 1 10 9 0 9 2 16 4 16
2 0 13 3 23 6 15 5 16 4 3 -5 -12 -9 -8 -11 19 -7 45 6 77 -10 60 -30 -7 -9
-8 -14 -1 -14 6 0 12 6 15 13 3 9 7 9 19 0 8 -7 17 -11 20 -8 3 3 11 -1 17 -9
7 -8 19 -12 27 -9 8 3 14 0 14 -6 0 -6 9 -11 20 -11 18 0 19 -6 15 -116 -2
-63 -8 -121 -14 -128 -6 -6 -8 -22 -5 -33 4 -12 -1 -32 -10 -45 -9 -13 -16
-45 -17 -78 -1 -30 -3 -47 -6 -37 -2 9 -10 17 -17 17 -7 0 -21 9 -31 20 -10
11 -22 20 -27 20 -8 0 -64 36 -78 50 -11 11 -46 31 -72 41 -16 6 -28 15 -28
20 0 5 -9 9 -19 9 -11 0 -21 5 -23 11 -3 8 -13 12 -48 18 -2 1 1 6 8 13 17 17
15 33 -3 18 -12 -10 -15 -9 -16 6 -1 11 -3 30 -6 44 -2 14 -6 60 -8 102 -3 52
-11 91 -26 119 -11 23 -22 59 -23 78 -1 20 -9 48 -19 61 -11 15 -17 44 -17 77
0 28 -4 55 -10 58 -13 8 -13 25 -1 25 5 0 16 -3 25 -6z m-1454 -76 c23 -17 28
-27 23 -42 -3 -12 -5 -36 -4 -53 2 -32 -11 -44 -24 -23 -4 6 -11 8 -16 5 -5
-4 -12 7 -15 24 -4 17 -12 36 -20 42 -11 9 -11 16 2 40 17 35 17 35 54 7z
m3457 -141 c1 -40 3 -72 4 -72 0 0 3 -12 5 -27 3 -32 -18 -48 -65 -48 -17 0
-31 1 -31 3 1 33 25 136 42 179 28 73 42 62 45 -35z m-2506 20 c-10 -9 -11 -8
-5 6 3 10 9 15 12 12 3 -3 0 -11 -7 -18z m33 -18 c-16 -18 -16 -19 7 -19 19 0
21 -2 9 -10 -10 -6 -19 -5 -29 5 -15 15 -7 50 9 40 5 -3 10 2 11 12 0 11 3 13
6 5 3 -7 -3 -22 -13 -33z m93 19 c-3 -8 -6 -5 -6 6 -1 11 2 17 5 13 3 -3 4
-12 1 -19z m-142 -20 c3 -3 -1 -11 -10 -18 -8 -7 -15 -20 -15 -29 1 -13 4 -12
19 6 18 22 19 22 36 3 10 -11 22 -18 27 -17 6 1 12 -7 14 -18 3 -22 -24 -58
-38 -49 -6 4 -8 -2 -6 -11 1 -10 19 -24 38 -30 29 -11 32 -14 17 -20 -12 -5
-15 -10 -8 -14 18 -11 -23 -48 -50 -46 -23 2 -37 -14 -38 -43 -1 -8 4 -10 11
-6 8 5 9 2 5 -11 -4 -9 -2 -24 5 -33 8 -10 14 -53 15 -121 2 -118 -2 -141 -22
-141 -33 0 -45 -43 -40 -138 6 -103 4 -105 -60 -75 -33 16 -54 47 -41 60 3 4
6 -1 6 -10 0 -33 15 -16 16 18 0 20 -4 31 -9 28 -7 -4 -7 1 -3 13 5 10 8 24 7
29 -3 22 -20 134 -32 208 -6 42 -16 77 -21 77 -5 0 -8 -31 -7 -68 2 -78 -25
-184 -46 -176 -16 6 -30 99 -26 172 3 59 29 125 64 169 19 23 50 119 52 158 0
6 6 14 13 18 7 5 10 14 6 20 -3 7 2 3 10 -7 9 -11 16 -25 16 -32 0 -7 4 -15 9
-19 6 -3 9 21 8 59 -1 50 2 69 17 85 17 19 47 23 61 9z m2580 -18 c3 -5 3 -15
-1 -21 -6 -11 -23 6 -24 24 0 10 18 9 25 -3z m165 -5 c0 -8 -4 -15 -10 -15 -5
0 -10 7 -10 15 0 8 5 15 10 15 6 0 10 -7 10 -15z m-3860 -16 c0 -5 -4 -9 -10
-9 -5 0 -10 7 -10 16 0 8 5 12 10 9 6 -3 10 -10 10 -16z m170 -4 c10 -20 11
-28 2 -37 -9 -9 -15 -7 -27 8 -18 24 -19 54 -2 54 8 0 20 -11 27 -25z m1478
-12 c29 -41 31 -63 10 -106 -11 -21 -17 -44 -15 -50 3 -7 8 0 12 16 4 15 11
27 15 27 5 0 5 -13 0 -29 -5 -19 -4 -37 4 -53 7 -14 15 -46 18 -71 5 -39 3
-45 -8 -36 -7 6 -17 8 -22 5 -5 -3 -17 1 -28 8 -10 8 -25 11 -33 8 -9 -3 -12
-1 -7 6 8 13 -9 34 -37 45 -14 5 -16 11 -8 24 6 13 5 24 -6 38 -13 17 -15 17
-10 2 5 -14 1 -17 -23 -15 -24 2 -30 7 -30 25 0 13 7 26 15 29 10 4 13 16 10
40 -2 18 0 36 4 38 5 3 6 17 3 31 -3 20 0 25 15 25 10 0 24 -5 29 -10 7 -7 16
-4 29 10 24 27 40 25 63 -7z m2097 -53 c-9 -15 -25 -12 -32 6 -8 21 19 38 30
18 4 -8 5 -19 2 -24z m-2542 -7 c-7 -2 -13 -9 -13 -15 0 -6 7 -8 15 -4 8 3 15
1 15 -4 0 -6 -13 -10 -30 -10 -16 0 -30 4 -30 10 0 10 30 30 45 29 6 0 4 -3
-2 -6z m3467 2 c0 -12 -33 -55 -41 -55 -14 0 -10 22 8 42 15 17 33 24 33 13z
m-3265 -62 c4 -10 9 -38 12 -63 l4 -45 -26 48 c-14 27 -25 55 -25 63 0 20 26
18 35 -3z m808 -46 c-3 -20 -14 -44 -24 -53 -24 -21 -24 -10 -3 64 12 40 19
51 25 40 4 -8 6 -31 2 -51z m-913 50 c0 -2 -16 -19 -36 -38 -26 -24 -33 -28
-25 -12 12 23 61 64 61 50z m56 -19 c3 -13 26 -63 50 -111 24 -48 44 -101 44
-118 0 -29 -2 -30 -32 -24 l-33 6 25 -19 c21 -18 22 -22 10 -38 -9 -11 -10
-15 -2 -10 6 4 12 3 12 -3 0 -5 -4 -12 -9 -15 -4 -3 -11 -24 -15 -47 -4 -23
-13 -51 -21 -62 -8 -12 -15 -42 -15 -68 0 -67 -10 -111 -25 -105 -10 3 -12
-16 -11 -80 1 -46 1 -84 1 -84 0 0 -31 11 -69 24 -65 23 -67 25 -45 37 13 6
28 18 32 25 4 8 17 14 27 14 10 0 21 3 23 8 3 4 -24 7 -59 8 -35 0 -67 4 -71
7 -3 4 -6 22 -6 40 1 17 2 64 2 102 0 43 7 83 16 102 12 24 14 53 11 128 -6
126 15 187 86 257 27 26 53 48 58 48 5 0 12 -10 16 -22z m967 -26 c4 0 22 -6
39 -13 28 -12 30 -15 25 -53 -10 -72 -100 -129 -112 -71 -3 14 -8 37 -12 53
-4 15 -7 32 -7 37 -1 6 -4 13 -9 16 -4 3 -2 20 4 37 l11 32 26 -19 c15 -10 31
-19 35 -19z m-2237 -9 c-10 -10 -19 5 -10 18 6 11 8 11 12 0 2 -7 1 -15 -2
-18z m-56 -53 c0 -5 -5 -10 -11 -10 -5 0 -7 5 -4 10 3 6 8 10 11 10 2 0 4 -4
4 -10z m1464 -16 c3 -8 2 -12 -4 -9 -6 3 -10 10 -10 16 0 14 7 11 14 -7z m735
9 c-1 -5 0 -10 1 -13 2 -3 4 -31 5 -63 2 -32 5 -61 9 -64 3 -4 6 -44 6 -90 0
-47 5 -94 12 -106 13 -25 28 -107 19 -107 -3 0 -31 15 -61 33 l-55 33 0 170
c-1 154 1 171 19 192 19 21 47 31 45 15z m361 -91 c0 -75 -57 -105 -130 -67
-33 17 -37 32 -15 61 8 10 15 31 15 47 0 15 5 27 11 27 6 0 9 7 6 15 -4 9 14
4 53 -16 57 -29 60 -32 60 -67z m1123 68 c4 -17 1 -20 -29 -17 -39 2 -46 23
-11 36 27 10 33 7 40 -19z m-2143 -112 c0 -5 -4 -8 -10 -8 -10 0 -60 69 -60
84 0 11 69 -65 70 -76z m1104 43 c17 -11 41 -34 54 -50 24 -33 42 -40 42 -17
0 12 13 9 58 -11 73 -33 78 -38 61 -60 -12 -16 -12 -17 2 -6 13 11 19 10 31
-5 8 -9 18 -29 22 -43 7 -30 -19 -117 -42 -139 -13 -13 -14 -13 -7 5 12 32 35
119 34 130 0 6 -13 -26 -28 -70 -34 -99 -95 -203 -127 -217 -13 -6 -24 -15
-24 -20 0 -4 -9 -8 -21 -8 -19 0 -20 4 -14 40 5 27 3 40 -5 40 -6 0 -10 6 -8
13 1 6 -12 40 -29 74 -18 33 -35 81 -38 105 -4 23 -9 54 -11 68 -5 24 -5 24
15 6 12 -11 24 -16 28 -13 4 4 -1 13 -10 20 -10 6 -19 22 -21 34 -3 12 -9 30
-14 40 -11 23 -3 103 10 103 6 0 25 -9 42 -19z m-271 -71 c16 -88 -11 -296
-40 -307 -37 -14 -62 55 -64 177 0 55 3 77 15 85 8 6 18 24 22 41 16 69 54 72
67 4z m-853 -85 c0 -19 -47 -65 -67 -65 -21 0 -5 -20 24 -31 23 -8 25 -13 20
-57 -2 -26 -14 -73 -26 -106 -12 -32 -28 -82 -35 -110 -12 -48 -15 -51 -48
-54 -35 -3 -36 -2 -42 41 -6 42 -1 77 13 77 3 0 7 37 9 83 2 69 8 92 34 144
25 49 39 66 67 77 46 19 51 19 51 1z m973 -7 c8 -13 29 -38 46 -57 19 -22 31
-45 31 -63 0 -15 9 -37 19 -47 31 -31 41 -57 47 -120 7 -70 -7 -81 -63 -51
-20 10 -40 17 -44 14 -4 -2 -11 5 -14 17 -5 15 -13 19 -28 15 -11 -3 -35 2
-53 10 l-32 15 -1 98 c-1 79 3 107 19 144 23 53 48 61 73 25z m67 7 c6 -8 10
-21 8 -30 -2 -13 -9 -10 -32 14 -27 29 -28 31 -9 31 11 0 26 -7 33 -15z m-472
-70 l0 -40 -9 40 c-4 22 -8 49 -8 60 l0 20 9 -20 c5 -11 8 -38 8 -60z m-502
40 c-3 -8 -1 -15 3 -15 5 0 7 -9 4 -20 -3 -11 -9 -20 -14 -20 -16 0 -21 27 -9
49 12 24 25 28 16 6z m1544 12 c0 -2 -10 -12 -22 -23 l-23 -19 19 23 c18 21
26 27 26 19z m1430 -21 c0 -17 -38 -28 -46 -14 -7 11 13 28 34 28 6 0 12 -6
12 -14z m-1393 -28 c-3 -8 -6 -5 -6 6 -1 11 2 17 5 13 3 -3 4 -12 1 -19z
m-2316 -95 c-12 -20 -14 -14 -5 12 4 9 9 14 11 11 3 -2 0 -13 -6 -23z m719
-62 c0 -64 -2 -70 -27 -87 -16 -10 -34 -24 -42 -31 -7 -8 -15 -12 -17 -11 -2
2 5 35 15 74 18 70 45 124 62 124 5 0 9 -31 9 -69z m3335 53 c12 -5 14 -9 4
-14 -14 -9 -39 -2 -39 11 0 11 12 11 35 3z m-2059 -56 c-18 -26 -22 -17 -5 14
6 11 13 17 16 15 3 -3 -2 -16 -11 -29z m106 18 c7 4 8 2 4 -4 -11 -18 -26 -14
-25 6 0 10 3 12 6 4 2 -6 10 -9 15 -6z m-1273 -15 c18 -12 19 -62 1 -156 -9
-54 -10 -85 -1 -138 6 -39 10 -71 8 -73 -2 -2 -19 6 -37 18 l-33 23 -2 105
c-2 107 9 195 27 218 12 14 18 15 37 3z m232 -18 c16 -10 27 -23 25 -30 -7
-16 3 -43 15 -43 5 0 9 7 9 15 0 21 11 19 40 -8 14 -13 33 -26 43 -30 16 -6
18 -14 12 -59 -9 -64 -34 -120 -80 -176 -19 -24 -35 -54 -35 -67 0 -44 -9 -56
-33 -43 -12 7 -24 13 -27 13 -22 4 -84 27 -120 45 -14 7 -22 46 -36 179 -7 60
11 140 33 148 9 4 12 14 9 29 -4 14 0 29 11 39 20 21 89 15 134 -12z m2581
-44 c-5 -60 -8 -67 -26 -87 -12 -14 -14 -21 -5 -24 9 -3 7 -11 -5 -31 -19 -28
-53 -44 -66 -30 -13 13 1 195 15 190 6 -3 17 3 23 13 9 14 18 17 39 11 25 -7
27 -11 25 -42z m436 -1 c6 -7 9 -29 7 -48 -3 -38 -17 -41 -48 -11 -15 15 -16
22 -6 44 13 29 30 34 47 15z m-2008 -43 c-7 -9 -15 -13 -19 -10 -3 3 1 10 9
15 21 14 24 12 10 -5z m40 8 c0 -5 -17 -21 -38 -37 l-37 -28 35 35 c38 39 40
41 40 30z m65 -12 c3 -5 2 -12 -3 -15 -5 -3 -9 1 -9 9 0 17 3 19 12 6z m-1525
-56 c-13 -14 -28 -25 -34 -25 -6 0 3 11 19 25 39 31 45 32 15 0z m1370 21 c0
-2 -8 -10 -17 -17 -16 -13 -17 -12 -4 4 13 16 21 21 21 13z m140 0 c0 -2 -7
-7 -16 -10 -8 -3 -12 -2 -9 4 6 10 25 14 25 6z m-46 -14 c3 -5 -1 -9 -9 -9 -8
0 -12 4 -9 9 3 4 7 8 9 8 2 0 6 -4 9 -8z m-777 -52 c16 0 45 -38 38 -49 -3 -7
0 -8 9 -5 24 9 20 -32 -5 -57 -11 -11 -27 -18 -35 -15 -8 3 -13 2 -10 -3 3 -5
-5 -11 -19 -13 -28 -6 -35 6 -24 45 6 21 3 39 -12 66 -11 21 -17 45 -13 54 5
15 9 15 34 -3 15 -11 32 -20 37 -20z m-623 -22 c-2 -29 -8 -56 -14 -62 -7 -7
-10 -7 -10 0 0 6 -16 19 -35 30 l-35 18 32 33 c18 18 40 33 49 33 15 0 17 -8
13 -52z m962 -115 c66 -27 66 -27 35 -36 -18 -4 -34 -14 -38 -22 -3 -8 -18
-15 -34 -15 -21 0 -27 -4 -23 -15 7 -18 -19 -20 -82 -4 -33 9 -43 16 -40 28 2
9 7 33 11 54 6 37 6 37 55 37 31 0 75 -10 116 -27z m-471 -95 c2 -34 9 -64 15
-66 5 -2 10 -8 10 -14 0 -13 -60 1 -78 18 -7 8 -17 14 -22 14 -12 0 16 86 37
114 23 31 32 17 38 -66z m126 62 c-27 -23 -71 -27 -71 -6 0 9 8 12 24 9 13 -3
32 0 43 6 28 16 30 12 4 -9z m37 -50 c-12 -28 -25 -47 -31 -43 -6 4 -8 0 -4
-11 4 -10 2 -26 -3 -37 -12 -21 -40 -26 -40 -6 0 8 -4 7 -10 -3 -8 -12 -10
-10 -10 10 0 33 37 93 52 84 6 -4 8 -3 4 4 -5 9 39 51 56 52 4 0 -2 -22 -14
-50z m12 -39 c-29 -58 -32 -51 -7 14 12 31 23 49 25 41 2 -8 -6 -33 -18 -55z
m496 -16 c-1 -14 -5 -28 -9 -31 -3 -3 -3 -12 0 -20 3 -8 -2 -17 -11 -20 -9 -3
-16 -12 -16 -19 0 -7 -7 -18 -15 -25 -8 -7 -15 -22 -15 -34 0 -15 -13 -27 -48
-43 -59 -28 -64 -16 -27 59 25 48 119 158 136 158 4 0 6 -11 5 -25z m-339 -67
c-3 -8 -6 -5 -6 6 -1 11 2 17 5 13 3 -3 4 -12 1 -19z m-76 -25 c-12 -20 -14
-14 -5 12 4 9 9 14 11 11 3 -2 0 -13 -6 -23z m-36 -33 c3 -6 -1 -7 -9 -4 -18
7 -21 14 -7 14 6 0 13 -4 16 -10z m-285 -20 c0 -5 -2 -10 -4 -10 -3 0 -8 5
-11 10 -3 6 -1 10 4 10 6 0 11 -4 11 -10z m-90 -32 c0 -5 5 -6 10 -3 6 4 28
-9 50 -29 21 -19 58 -47 81 -63 35 -23 38 -28 23 -34 -11 -4 -14 -8 -7 -8 7
-1 10 -8 7 -16 -4 -9 0 -15 7 -15 8 -1 1 -8 -15 -16 -29 -16 -43 -16 -174 2
-36 5 -42 9 -37 25 4 11 2 19 -4 19 -10 0 -9 33 2 60 3 8 10 31 16 51 7 20 18
36 26 36 8 0 15 -4 15 -9z m2670 -76 c0 -5 -9 -18 -21 -31 -11 -12 -19 -27
-16 -34 7 -20 -28 -72 -57 -82 -42 -15 -61 3 -61 58 1 53 19 80 52 74 13 -2
23 0 23 5 0 6 11 7 24 4 14 -3 28 -2 31 4 7 12 25 13 25 2z m-2064 -64 c19
-45 20 -54 7 -78 -21 -42 -61 -63 -133 -69 -50 -5 -66 -10 -68 -23 -2 -9 5
-18 15 -21 10 -3 -7 -5 -38 -6 -60 -1 -133 21 -108 33 11 5 11 7 2 12 -21 9
-15 78 8 108 16 20 29 26 58 26 70 0 146 20 186 49 22 15 42 26 45 24 2 -2 14
-27 26 -55z m533 48 c-2 -2 -15 -9 -29 -15 -24 -11 -24 -11 -6 3 16 13 49 24
35 12z m-12 -51 c0 -8 -9 -15 -19 -15 -16 0 -17 2 -6 15 17 19 25 19 25 0z
m-70 -131 c-3 -3 -12 -4 -19 -1 -8 3 -5 6 6 6 11 1 17 -2 13 -5z m1893 -74
c34 -68 35 -70 16 -70 -11 0 -56 96 -56 121 0 20 11 6 40 -51z m-1930 40 c18
-12 2 -12 -25 0 -13 6 -15 9 -5 9 8 0 22 -4 30 -9z m3 -37 c-7 -2 -19 -2 -25
0 -7 3 -2 5 12 5 14 0 19 -2 13 -5z m-66 -9 c-3 -3 -12 -4 -19 -1 -8 3 -5 6 6
6 11 1 17 -2 13 -5z m-774 -361 c-7 -2 -19 -2 -25 0 -7 3 -2 5 12 5 14 0 19
-2 13 -5z"/>
<path d="M1790 4760 c0 -5 5 -10 10 -10 6 0 10 5 10 10 0 6 -4 10 -10 10 -5 0
-10 -4 -10 -10z"/>
<path d="M1855 4710 c-3 -5 -2 -10 4 -10 5 0 13 5 16 10 3 6 2 10 -4 10 -5 0
-13 -4 -16 -10z"/>
<path d="M1955 4701 c-3 -5 -1 -12 5 -16 5 -3 10 1 10 9 0 18 -6 21 -15 7z"/>
<path d="M1910 4548 c0 -10 19 -9 45 2 16 7 14 8 -12 7 -18 -1 -33 -5 -33 -9z"/>
<path d="M2028 4508 c-33 -36 -35 -48 -9 -41 17 4 49 58 40 67 -2 2 -16 -10
-31 -26z"/>
<path d="M2068 4473 c6 -2 9 -10 6 -15 -4 -7 -2 -8 5 -4 13 9 5 26 -12 25 -9
0 -8 -2 1 -6z"/>
<path d="M1830 4340 c0 -5 5 -10 11 -10 5 0 7 5 4 10 -3 6 -8 10 -11 10 -2 0
-4 -4 -4 -10z"/>
<path d="M3150 3991 c0 -6 6 -11 14 -11 8 0 23 -3 33 -6 12 -5 15 -4 8 3 -15
16 -55 26 -55 14z"/>
<path d="M3224 3979 c-3 -6 -1 -16 5 -22 8 -8 11 -5 11 11 0 24 -5 28 -16 11z"/>
<path d="M3157 3933 c8 -3 11 -14 7 -29 -5 -20 -2 -24 14 -24 12 0 23 4 26 8
7 11 -31 52 -47 51 -9 0 -9 -2 0 -6z"/>
<path d="M3036 3901 c-4 -5 0 -11 6 -14 10 -3 10 -7 1 -19 -7 -8 -10 -18 -6
-21 12 -13 23 -7 23 12 0 11 6 21 12 23 8 3 5 9 -9 16 -13 7 -24 8 -27 3z"/>
<path d="M3046 3785 c4 -8 8 -15 10 -15 2 0 4 7 4 15 0 8 -4 15 -10 15 -5 0
-7 -7 -4 -15z"/>
<path d="M3026 3759 c7 -8 14 -23 17 -34 4 -13 5 -9 4 9 -1 16 -9 32 -17 34
-12 4 -13 2 -4 -9z"/>
<path d="M2780 3749 c0 -5 5 -7 10 -4 6 3 10 8 10 11 0 2 -4 4 -10 4 -5 0 -10
-5 -10 -11z"/>
<path d="M2815 3730 c3 -5 8 -10 11 -10 2 0 4 5 4 10 0 6 -5 10 -11 10 -5 0
-7 -4 -4 -10z"/>
<path d="M1065 3510 c-3 -5 -1 -10 4 -10 6 0 11 5 11 10 0 6 -2 10 -4 10 -3 0
-8 -4 -11 -10z"/>
<path d="M1875 3470 c-3 -5 -1 -10 4 -10 6 0 11 5 11 10 0 6 -2 10 -4 10 -3 0
-8 -4 -11 -10z"/>
<path d="M2120 3221 c0 -5 7 -14 15 -21 10 -8 12 -17 7 -22 -14 -14 -3 -47 19
-58 15 -9 18 -6 18 23 -1 47 -17 83 -39 84 -11 1 -20 -2 -20 -6z m50 -56 c0
-8 -4 -15 -10 -15 -5 0 -10 7 -10 15 0 8 5 15 10 15 6 0 10 -7 10 -15z"/>
<path d="M2100 3145 c-8 -29 -6 -55 2 -47 5 5 8 20 5 33 -2 13 -5 20 -7 14z"/>
<path d="M2410 3131 c-22 -6 -23 -8 -7 -14 27 -10 34 -9 34 8 0 8 -1 15 -1 14
-1 -1 -12 -4 -26 -8z"/>
<path d="M2125 3100 c-8 -13 5 -13 25 0 13 8 13 10 -2 10 -9 0 -20 -4 -23 -10z"/>
<path d="M2170 3075 c7 -8 17 -15 22 -15 6 0 5 7 -2 15 -7 8 -17 15 -22 15 -6
0 -5 -7 2 -15z"/>
<path d="M2240 3069 c0 -5 5 -7 10 -4 6 3 10 8 10 11 0 2 -4 4 -10 4 -5 0 -10
-5 -10 -11z"/>
<path d="M2430 3070 c0 -5 5 -10 10 -10 6 0 10 5 10 10 0 6 -4 10 -10 10 -5 0
-10 -4 -10 -10z"/>
<path d="M2593 2896 c0 -8 6 -12 14 -9 7 3 13 9 13 14 0 5 -6 9 -13 9 -8 0
-14 -6 -14 -14z"/>
<path d="M2651 2894 c-7 -8 -11 -17 -9 -20 3 -2 13 5 23 16 10 11 14 20 9 20
-5 -1 -15 -8 -23 -16z"/>
<path d="M2270 2870 c0 -5 4 -10 9 -10 6 0 13 5 16 10 3 6 -1 10 -9 10 -9 0
-16 -4 -16 -10z"/>
<path d="M2855 2830 c3 -5 8 -10 11 -10 2 0 4 5 4 10 0 6 -5 10 -11 10 -5 0
-7 -4 -4 -10z"/>
<path d="M2291 2814 c0 -11 3 -14 6 -6 3 7 2 16 -1 19 -3 4 -6 -2 -5 -13z"/>
<path d="M2800 2802 c0 -12 19 -26 26 -19 2 2 -2 10 -11 17 -9 8 -15 8 -15 2z"/>
<path d="M2480 2780 c0 -5 5 -10 10 -10 6 0 10 5 10 10 0 6 -4 10 -10 10 -5 0
-10 -4 -10 -10z"/>
<path d="M2905 2780 c3 -5 8 -10 11 -10 2 0 4 5 4 10 0 6 -5 10 -11 10 -5 0
-7 -4 -4 -10z"/>
<path d="M2606 2772 c-2 -4 4 -9 15 -9 11 -1 17 2 14 8 -7 11 -22 12 -29 1z"/>
<path d="M2656 2751 c-4 -7 -5 -15 -2 -18 9 -9 19 4 14 18 -4 11 -6 11 -12 0z"/>
<path d="M2610 2730 c-8 -5 -12 -12 -9 -15 4 -3 12 1 19 10 14 17 11 19 -10 5z"/>
<path d="M2570 2720 c0 -5 5 -10 11 -10 5 0 7 5 4 10 -3 6 -8 10 -11 10 -2 0
-4 -4 -4 -10z"/>
<path d="M2910 2676 c-19 -8 -25 -19 -26 -44 0 -31 20 -41 22 -11 3 44 5 47
23 42 10 -3 21 0 25 5 9 15 -16 20 -44 8z"/>
<path d="M3404 2593 c-15 -27 -44 -77 -66 -113 -28 -48 -31 -56 -11 -31 29 35
117 191 109 191 -3 0 -17 -21 -32 -47z"/>
<path d="M2930 2609 c0 -5 5 -7 10 -4 6 3 10 8 10 11 0 2 -4 4 -10 4 -5 0 -10
-5 -10 -11z"/>
<path d="M2315 2450 c3 -5 8 -10 11 -10 2 0 4 5 4 10 0 6 -5 10 -11 10 -5 0
-7 -4 -4 -10z"/>
<path d="M2620 2400 c20 -13 33 -13 25 0 -3 6 -14 10 -23 10 -15 0 -15 -2 -2
-10z"/>
<path d="M3127 2399 c7 -7 15 -10 18 -7 3 3 -2 9 -12 12 -14 6 -15 5 -6 -5z"/>
<path d="M2217 2383 c3 -7 9 -13 14 -13 5 0 9 -7 9 -15 0 -8 4 -14 9 -12 5 1
16 -6 23 -16 7 -10 28 -20 47 -22 26 -3 31 -2 22 9 -6 7 -9 21 -5 30 3 9 2 16
-4 16 -6 0 -8 8 -6 18 4 15 -3 17 -54 17 -44 0 -58 -3 -55 -12z"/>
<path d="M2397 2383 c-4 -3 -7 -11 -7 -17 0 -6 5 -5 12 2 6 6 9 14 7 17 -3 3
-9 2 -12 -2z"/>
<path d="M2417 2366 c-4 -10 -1 -13 8 -9 8 3 12 9 9 14 -7 12 -11 11 -17 -5z"/>
<path d="M2880 2332 c0 -11 8 -18 23 -19 12 0 16 1 10 4 -7 3 -13 11 -13 19 0
8 -4 14 -10 14 -5 0 -10 -8 -10 -18z"/>
<path d="M2580 2281 c0 -11 5 -23 10 -26 6 -4 10 5 10 19 0 14 -4 26 -10 26
-5 0 -10 -9 -10 -19z"/>
<path d="M3056 2291 c-18 -7 -18 -8 4 -14 27 -7 39 -1 24 12 -5 5 -18 5 -28 2z"/>
<path d="M2870 2240 c0 -5 5 -10 10 -10 6 0 10 5 10 10 0 6 -4 10 -10 10 -5 0
-10 -4 -10 -10z"/>
<path d="M2774 2150 c0 -11 6 -20 13 -20 15 0 15 2 7 24 -9 22 -20 20 -20 -4z"/>
<path d="M2735 2140 c-3 -5 -2 -10 4 -10 5 0 13 5 16 10 3 6 2 10 -4 10 -5 0
-13 -4 -16 -10z"/>
<path d="M2810 2145 c0 -5 8 -17 17 -27 16 -18 16 -18 0 -12 -10 3 -17 1 -17
-5 0 -13 36 -15 44 -2 3 4 -6 19 -19 31 -14 13 -25 20 -25 15z"/>
<path d="M2785 2111 c-3 -5 -1 -12 4 -15 5 -3 11 1 15 9 6 16 -9 21 -19 6z"/>
<path d="M2723 2090 c-24 -10 -31 -34 -13 -45 6 -3 10 -1 10 5 0 7 8 9 22 5
16 -6 20 -4 15 8 -3 8 0 20 6 26 14 14 -7 14 -40 1z"/>
<path d="M2854 2063 c0 -11 -6 -18 -18 -18 -11 0 -21 -5 -23 -10 -2 -6 8 -11
23 -10 31 0 50 28 30 44 -11 9 -14 8 -12 -6z"/>
<path d="M2655 2060 c-3 -5 -2 -10 4 -10 5 0 13 5 16 10 3 6 2 10 -4 10 -5 0
-13 -4 -16 -10z"/>
<path d="M2950 2020 c-9 -6 -10 -10 -3 -10 6 0 15 5 18 10 8 12 4 12 -15 0z"/>
<path d="M2814 1985 c3 -8 1 -15 -4 -15 -6 0 -10 -5 -10 -11 0 -8 4 -8 13 0 9
7 17 7 24 0 5 -5 17 -7 27 -3 16 6 16 8 0 25 -14 15 -19 17 -26 7 -6 -10 -8
-10 -8 0 0 6 -5 12 -11 12 -6 0 -9 -7 -5 -15z"/>
<path d="M2890 1990 c0 -5 5 -10 11 -10 5 0 7 5 4 10 -3 6 -8 10 -11 10 -2 0
-4 -4 -4 -10z"/>
<path d="M2776 1974 c-4 -9 -4 -19 -1 -22 2 -3 7 3 11 12 4 9 4 19 1 22 -2 3
-7 -3 -11 -12z"/>
<path d="M2887 1920 c-3 -11 -1 -23 4 -26 5 -3 9 -1 9 5 0 5 3 16 6 25 3 9 2
16 -4 16 -5 0 -12 -9 -15 -20z"/>
<path d="M3981 3317 c2 -1 15 -11 29 -22 l25 -20 -19 23 c-11 12 -24 22 -29
22 -6 0 -8 -1 -6 -3z"/>
<path d="M4350 3210 c-9 -6 -10 -10 -3 -10 6 0 15 5 18 10 8 12 4 12 -15 0z"/>
<path d="M4015 3118 c11 -6 29 -18 40 -27 12 -9 8 -4 -7 12 -16 15 -34 27 -41
27 -6 0 -3 -6 8 -12z"/>
<path d="M4180 2947 c0 -2 14 -16 31 -33 18 -17 28 -22 24 -12 -6 14 -55 55
-55 45z"/>
<path d="M1093 2835 c0 -8 4 -12 9 -9 5 3 6 10 3 15 -9 13 -12 11 -12 -6z"/>
<path d="M1043 2740 c-1 -11 2 -22 8 -25 5 -4 8 3 6 14 -4 28 -12 34 -14 11z"/>
<path d="M1020 2650 c0 -5 5 -10 11 -10 5 0 7 5 4 10 -3 6 -8 10 -11 10 -2 0
-4 -4 -4 -10z"/>
<path d="M4427 2806 c10 -13 19 -23 21 -21 7 6 -19 45 -29 45 -5 0 -2 -11 8
-24z"/>
<path d="M2048 2605 c-3 -14 -2 -25 2 -25 11 0 20 39 10 45 -4 3 -10 -6 -12
-20z"/>
<path d="M2030 2519 c0 -5 5 -7 10 -4 6 3 10 8 10 11 0 2 -4 4 -10 4 -5 0 -10
-5 -10 -11z"/>
<path d="M2011 2474 c0 -11 3 -14 6 -6 3 7 2 16 -1 19 -3 4 -6 -2 -5 -13z"/>
<path d="M1520 2356 c0 -8 -10 -22 -22 -31 l-23 -17 23 7 c21 6 23 4 17 -17
-10 -36 -15 -64 -9 -50 3 6 12 12 19 12 22 0 27 18 13 42 -6 13 -11 33 -9 46
1 12 0 22 -3 22 -3 0 -6 -6 -6 -14z"/>
<path d="M1560 2349 c0 -5 5 -7 10 -4 6 3 10 8 10 11 0 2 -4 4 -10 4 -5 0 -10
-5 -10 -11z"/>
<path d="M1207 2323 c-4 -3 -7 -13 -7 -22 1 -13 3 -13 11 2 11 19 8 33 -4 20z"/>
<path d="M1566 2298 c-8 -32 -7 -48 2 -48 5 0 9 6 10 13 0 6 4 22 7 35 4 12 3
22 -3 22 -5 0 -12 -10 -16 -22z"/>
<path d="M1430 2230 c-9 -6 -10 -10 -3 -10 6 0 15 5 18 10 8 12 4 12 -15 0z"/>
<path d="M1440 2169 c0 -5 5 -7 10 -4 6 3 10 8 10 11 0 2 -4 4 -10 4 -5 0 -10
-5 -10 -11z"/>
<path d="M1930 2230 c0 -5 5 -10 10 -10 6 0 10 5 10 10 0 6 -4 10 -10 10 -5 0
-10 -4 -10 -10z"/>
<path d="M1860 1990 c0 -5 5 -10 11 -10 5 0 7 5 4 10 -3 6 -8 10 -11 10 -2 0
-4 -4 -4 -10z"/>
<path d="M2180 1881 c0 -5 5 -13 10 -16 6 -3 10 -2 10 4 0 5 -4 13 -10 16 -5
3 -10 2 -10 -4z"/>
<path d="M2055 1869 c-4 -6 -3 -15 3 -21 6 -6 11 -4 15 6 7 18 -9 31 -18 15z"/>
<path d="M2114 1838 c0 -12 7 -23 15 -26 10 -3 12 0 8 12 -4 10 -7 22 -7 27 0
5 -4 9 -9 9 -4 0 -8 -10 -7 -22z"/>
<path d="M2050 1783 c0 -22 2 -25 10 -13 13 20 13 40 0 40 -5 0 -10 -12 -10
-27z"/>
<path d="M1220 1830 c0 -5 5 -10 10 -10 6 0 10 5 10 10 0 6 -4 10 -10 10 -5 0
-10 -4 -10 -10z"/>
<path d="M1160 1493 c0 -38 4 -73 8 -80 4 -6 7 24 7 68 0 43 -3 79 -7 79 -5 0
-8 -30 -8 -67z"/>
<path d="M1650 2050 c-8 -15 -8 -20 2 -20 7 0 19 9 26 20 10 17 10 20 -3 20
-8 0 -19 -9 -25 -20z"/>
<path d="M1726 2016 c-9 -19 -16 -42 -15 -53 0 -10 6 0 13 22 7 25 21 44 36
52 23 12 24 13 4 13 -15 0 -27 -11 -38 -34z"/>
<path d="M1350 1406 c0 -9 5 -16 10 -16 6 0 10 4 10 9 0 6 -4 13 -10 16 -5 3
-10 -1 -10 -9z"/>
<path d="M1390 1389 c0 -13 5 -31 10 -39 8 -11 9 -5 5 20 -7 42 -15 52 -15 19z"/>
<path d="M1420 1387 c0 -14 5 -29 10 -32 7 -4 8 3 4 22 -9 38 -14 42 -14 10z"/>
<path d="M2330 1531 c0 -6 5 -13 10 -16 6 -3 10 1 10 9 0 9 -4 16 -10 16 -5 0
-10 -4 -10 -9z"/>
<path d="M3003 1628 c-4 -7 -16 -35 -25 -62 -21 -59 -19 -57 -46 -49 -12 3
-25 16 -28 30 -8 30 -14 24 -36 -35 -21 -55 -23 -74 -4 -49 12 15 14 15 19 2
4 -8 13 -12 22 -9 9 4 14 13 11 20 -3 9 2 14 15 14 18 0 17 -6 -20 -78 -23
-43 -41 -82 -41 -87 0 -6 5 -2 11 8 6 9 14 15 19 12 5 -3 12 0 16 6 4 8 3 9
-4 5 -17 -11 -15 0 11 47 13 23 28 56 34 72 6 17 23 60 37 98 24 63 28 84 9
55z"/>
<path d="M2955 1569 c-4 -6 -5 -12 -2 -15 2 -3 7 2 10 11 7 17 1 20 -8 4z"/>
<path d="M2780 1545 c0 -8 4 -16 8 -19 11 -7 38 11 29 20 -13 14 -37 13 -37
-1z"/>
<path d="M2970 1479 c0 -5 5 -7 10 -4 6 3 10 8 10 11 0 2 -4 4 -10 4 -5 0 -10
-5 -10 -11z"/>
<path d="M2475 1570 c-3 -5 1 -10 9 -10 9 0 16 5 16 10 0 6 -4 10 -9 10 -6 0
-13 -4 -16 -10z"/>
<path d="M2566 1451 c-4 -7 -5 -15 -2 -18 9 -9 19 4 14 18 -4 11 -6 11 -12 0z"/>
<path d="M2755 1380 c-3 -5 -1 -10 4 -10 6 0 11 5 11 10 0 6 -2 10 -4 10 -3 0
-8 -4 -11 -10z"/>
<path d="M2087 1301 c-25 -17 -26 -19 -9 -23 14 -4 23 1 31 18 6 13 10 24 8
23 -1 0 -15 -9 -30 -18z"/>
<path d="M2118 5113 c7 -3 16 -2 19 1 4 3 -2 6 -13 5 -11 0 -14 -3 -6 -6z"/>
<path d="M2248 5113 c7 -3 16 -2 19 1 4 3 -2 6 -13 5 -11 0 -14 -3 -6 -6z"/>
<path d="M2470 5110 c0 -5 5 -10 10 -10 6 0 10 5 10 10 0 6 -4 10 -10 10 -5 0
-10 -4 -10 -10z"/>
<path d="M2511 5103 c0 -10 3 -13 5 -6 3 7 13 9 22 6 15 -4 15 -3 2 6 -22 15
-30 14 -29 -6z"/>
<path d="M1976 5095 c-11 -8 -17 -18 -13 -21 4 -4 14 -1 24 7 15 12 16 12 10
-3 -14 -37 1 -45 66 -39 5 1 6 5 3 9 -3 5 -19 7 -36 4 -29 -4 -30 -3 -24 27 7
34 -1 38 -30 16z"/>
<path d="M1800 5085 c7 -8 16 -15 21 -15 5 0 9 7 9 15 0 9 -9 15 -21 15 -18 0
-19 -2 -9 -15z"/>
<path d="M1919 5083 c-13 -17 -13 -17 6 -3 11 8 22 16 24 17 2 2 0 3 -6 3 -6
0 -17 -8 -24 -17z"/>
<path d="M2408 5079 c-24 -14 -23 -28 2 -22 25 7 49 33 29 33 -8 0 -22 -5 -31
-11z"/>
<path d="M2465 5080 c3 -5 8 -10 11 -10 2 0 4 5 4 10 0 6 -5 10 -11 10 -5 0
-7 -4 -4 -10z"/>
<path d="M1846 5064 c-7 -18 0 -34 15 -34 5 0 9 9 9 21 0 13 4 18 12 13 7 -4
8 -3 4 4 -10 17 -33 15 -40 -4z"/>
<path d="M1939 5065 c-1 -5 -2 -17 -3 -25 0 -8 -6 -14 -13 -13 -7 2 -10 -4 -6
-13 8 -20 39 -13 35 9 -2 11 4 17 15 18 14 0 15 2 3 6 -8 3 -18 11 -22 17 -5
7 -8 7 -9 1z"/>
<path d="M1770 5039 c0 -18 2 -19 15 -9 15 12 12 30 -6 30 -5 0 -9 -10 -9 -21z"/>
<path d="M2435 5050 c-3 -5 1 -10 10 -10 9 0 13 5 10 10 -3 6 -8 10 -10 10 -2
0 -7 -4 -10 -10z"/>
<path d="M286 5018 c3 -5 10 -6 15 -3 13 9 11 12 -6 12 -8 0 -12 -4 -9 -9z"/>
<path d="M1880 5018 c0 -18 18 -34 28 -24 3 4 -2 14 -11 23 -16 16 -17 16 -17
1z"/>
<path d="M1970 5010 c0 -5 7 -10 15 -10 8 0 15 5 15 10 0 6 -7 10 -15 10 -8 0
-15 -4 -15 -10z"/>
<path d="M1660 5000 c0 -5 5 -10 10 -10 6 0 10 5 10 10 0 6 -4 10 -10 10 -5 0
-10 -4 -10 -10z"/>
<path d="M1630 4966 c0 -10 28 -13 41 -5 10 6 7 9 -13 9 -16 0 -28 -2 -28 -4z"/>
<path d="M145 4949 c-4 -6 -5 -12 -2 -15 2 -3 7 2 10 11 7 17 1 20 -8 4z"/>
<path d="M541 4844 c0 -11 3 -14 6 -6 3 7 2 16 -1 19 -3 4 -6 -2 -5 -13z"/>
<path d="M696 4841 c-3 -5 3 -11 15 -14 16 -4 18 -3 8 9 -13 16 -16 17 -23 5z"/>
<path d="M835 4830 c-3 -5 1 -10 10 -10 9 0 13 5 10 10 -3 6 -8 10 -10 10 -2
0 -7 -4 -10 -10z"/>
<path d="M100 4790 c0 -5 5 -10 11 -10 5 0 7 5 4 10 -3 6 -8 10 -11 10 -2 0
-4 -4 -4 -10z"/>
<path d="M477 4792 c-3 -4 3 -13 14 -20 10 -7 19 -8 19 -3 0 13 -28 33 -33 23z"/>
<path d="M760 4759 c0 -11 4 -18 10 -14 5 3 7 12 3 20 -7 21 -13 19 -13 -6z"/>
<path d="M370 4740 c0 -5 7 -10 16 -10 8 0 12 5 9 10 -3 6 -10 10 -16 10 -5 0
-9 -4 -9 -10z"/>
<path d="M468 4733 c7 -3 16 -2 19 1 4 3 -2 6 -13 5 -11 0 -14 -3 -6 -6z"/>
<path d="M515 4730 c-3 -5 3 -10 15 -10 12 0 18 5 15 10 -3 6 -10 10 -15 10
-5 0 -12 -4 -15 -10z"/>
<path d="M596 4709 c14 -15 18 -16 30 -4 20 19 18 21 -16 21 -28 0 -29 -1 -14
-17z"/>
<path d="M760 4700 c0 -5 5 -10 11 -10 5 0 7 5 4 10 -3 6 -8 10 -11 10 -2 0
-4 -4 -4 -10z"/>
<path d="M480 4690 c0 -5 5 -10 10 -10 6 0 10 5 10 10 0 6 -4 10 -10 10 -5 0
-10 -4 -10 -10z"/>
<path d="M570 4691 c0 -5 7 -11 14 -14 10 -4 13 -1 9 9 -6 15 -23 19 -23 5z"/>
<path d="M830 4681 c0 -12 5 -21 10 -21 6 0 10 6 10 14 0 8 -4 18 -10 21 -5 3
-10 -3 -10 -14z"/>
<path d="M870 4690 c0 -5 5 -10 11 -10 5 0 7 5 4 10 -3 6 -8 10 -11 10 -2 0
-4 -4 -4 -10z"/>
<path d="M980 4690 c0 -5 5 -10 10 -10 6 0 10 5 10 10 0 6 -4 10 -10 10 -5 0
-10 -4 -10 -10z"/>
<path d="M693 4667 c4 -10 7 -21 7 -23 0 -2 6 -4 14 -4 9 0 12 -7 9 -20 -3
-11 -10 -20 -15 -20 -6 0 -8 7 -4 15 7 19 -4 19 -40 0 -28 -14 -29 -14 -32 10
-4 28 -17 33 -26 10 -3 -8 -12 -15 -20 -15 -8 0 -17 -9 -21 -19 -3 -11 -14
-22 -23 -24 -13 -4 -12 -5 5 -6 12 0 23 -7 26 -13 3 -10 8 -10 17 -2 8 8 9 14
1 18 -6 4 -11 11 -11 17 0 14 27 11 33 -4 3 -9 17 -13 39 -10 71 7 88 3 88
-21 0 -19 -1 -19 -14 -1 -9 13 -18 16 -32 10 -10 -5 -23 -9 -29 -10 -24 -2
-36 -18 -29 -38 6 -19 5 -20 -10 -8 -9 7 -16 21 -16 30 0 11 -7 8 -27 -13 -26
-28 -26 -29 -7 -44 15 -12 16 -14 2 -9 -19 7 -32 -20 -23 -45 7 -18 -31 -32
-39 -14 -2 6 -5 3 -5 -6 -1 -10 4 -18 9 -18 6 0 10 -6 10 -14 0 -8 7 -16 15
-20 8 -3 12 -12 9 -20 -4 -10 0 -14 13 -12 10 2 17 10 15 20 -3 17 6 20 32 10
13 -5 14 -9 5 -20 -9 -11 -8 -14 6 -14 12 0 16 -6 12 -19 -3 -11 1 -22 8 -25
7 -2 15 4 18 15 3 11 14 19 26 19 24 0 28 15 6 24 -11 4 -13 11 -6 29 5 14 6
28 1 33 -4 5 -10 20 -12 34 -2 19 1 25 17 25 16 0 19 -6 17 -27 -2 -16 1 -28
8 -28 6 0 8 5 5 10 -4 6 -1 17 5 25 9 11 9 15 1 15 -6 0 -11 6 -11 14 0 8 -3
16 -7 19 -5 2 -2 2 6 0 8 -2 22 4 33 13 10 10 21 14 24 11 4 -3 16 -1 27 4 15
8 22 8 28 -2 5 -8 9 -9 9 -4 0 6 -7 20 -15 33 -13 18 -14 21 -1 16 7 -3 17 -1
21 5 4 7 -5 11 -24 11 -25 0 -31 5 -37 33 -4 17 -7 35 -6 40 1 4 -4 7 -11 7
-7 0 -13 -11 -12 -27 0 -14 -6 -28 -13 -31 -9 -3 -11 3 -7 20 6 25 1 35 -29
58 -18 14 -19 13 -13 -3z m-23 -77 c0 -5 -2 -10 -4 -10 -3 0 -8 5 -11 10 -3 6
-1 10 4 10 6 0 11 -4 11 -10z m106 -27 c-10 -10 -19 5 -10 18 6 11 8 11 12 0
2 -7 1 -15 -2 -18z m26 -27 c7 4 8 2 4 -4 -11 -18 -26 -14 -25 6 0 10 3 12 6
4 2 -6 10 -9 15 -6z m-145 -82 c-3 -3 -12 -4 -19 -1 -8 3 -5 6 6 6 11 1 17 -2
13 -5z"/>
<path d="M645 4650 c-3 -5 1 -10 10 -10 9 0 13 5 10 10 -3 6 -8 10 -10 10 -2
0 -7 -4 -10 -10z"/>
<path d="M813 4635 c4 -8 2 -17 -3 -20 -21 -13 -10 -35 17 -35 26 0 26 1 7 15
-17 13 -17 14 -1 15 9 0 17 5 17 10 0 6 -3 9 -7 9 -20 -3 -26 2 -13 11 13 8
12 10 -4 10 -12 0 -16 -5 -13 -15z"/>
<path d="M871 4613 c0 -25 1 -26 9 -8 12 27 12 35 0 35 -5 0 -10 -12 -9 -27z"/>
<path d="M264 4615 c-12 -9 -14 -14 -6 -15 7 0 20 7 28 15 20 19 4 20 -22 0z"/>
<path d="M329 4598 c-1 -7 -3 -23 -4 -35 -2 -19 1 -21 16 -12 12 6 16 15 12
27 -6 16 -6 16 10 0 9 -9 17 -21 17 -27 0 -7 12 -9 30 -6 23 4 28 2 24 -10 -4
-8 -1 -15 5 -15 6 0 10 6 9 13 -2 6 3 12 11 12 8 0 15 -8 17 -17 2 -14 -5 -18
-32 -18 -24 0 -33 4 -28 11 4 7 1 10 -6 7 -8 -2 -14 -14 -15 -26 -2 -22 9 -30
19 -13 3 5 17 9 31 9 14 0 25 -4 25 -9 0 -5 7 -9 15 -9 8 0 15 -5 15 -11 0 -5
-4 -7 -10 -4 -5 3 -7 0 -4 -8 8 -21 54 -29 54 -9 0 8 -8 21 -17 28 -17 11 -16
13 9 23 35 13 43 28 24 46 -20 20 -26 19 -21 -5 5 -26 -11 -35 -18 -10 -3 13
-11 18 -20 14 -8 -3 -18 -1 -22 5 -3 7 3 11 17 12 16 1 18 3 6 6 -9 2 -25 0
-36 -6 -20 -11 -37 -3 -37 17 0 6 -4 11 -10 10 -5 -2 -9 -9 -9 -15 2 -16 -17
-5 -34 19 -15 21 -41 24 -43 6z"/>
<path d="M485 4590 c3 -5 10 -10 16 -10 5 0 9 5 9 10 0 6 -7 10 -16 10 -8 0
-12 -4 -9 -10z"/>
<path d="M258 4563 c7 -3 16 -2 19 1 4 3 -2 6 -13 5 -11 0 -14 -3 -6 -6z"/>
<path d="M847 4543 c-6 -10 10 -53 19 -53 3 0 3 11 0 24 -4 15 -1 26 7 29 7 3
5 6 -5 6 -9 1 -19 -2 -21 -6z"/>
<path d="M180 4530 c0 -5 5 -10 10 -10 6 0 10 5 10 10 0 6 -4 10 -10 10 -5 0
-10 -4 -10 -10z"/>
<path d="M290 4530 c0 -5 5 -10 10 -10 6 0 10 5 10 10 0 6 -4 10 -10 10 -5 0
-10 -4 -10 -10z"/>
<path d="M280 4450 c0 -5 5 -10 10 -10 6 0 10 5 10 10 0 6 -4 10 -10 10 -5 0
-10 -4 -10 -10z"/>
<path d="M1 4434 c0 -11 3 -14 6 -6 3 7 2 16 -1 19 -3 4 -6 -2 -5 -13z"/>
<path d="M880 4418 c0 -10 -5 -18 -11 -18 -5 0 -7 -4 -4 -10 3 -5 1 -19 -5
-30 -8 -14 -8 -20 0 -20 6 0 9 -4 6 -9 -10 -15 19 -20 37 -6 16 12 16 13 -8
19 -14 4 -25 11 -25 17 0 11 26 8 65 -7 16 -6 16 -1 6 56 -1 2 -7 -2 -13 -8
-10 -10 -16 -8 -30 10 -15 19 -18 20 -18 6z"/>
<path d="M70 4401 c-8 -10 -20 -27 -27 -38 -10 -18 -9 -21 12 -25 24 -5 45 8
45 27 0 5 -7 2 -14 -8 -9 -12 -16 -14 -21 -8 -3 6 1 18 9 27 9 8 16 22 16 30
0 17 -1 17 -20 -5z"/>
<path d="M123 4410 c-13 -5 -23 -12 -23 -14 0 -3 6 -3 14 0 8 3 16 -4 20 -20
3 -14 11 -26 16 -26 13 0 13 17 0 25 -5 3 -10 13 -10 21 0 9 5 12 12 8 7 -4 8
-3 4 4 -4 7 -8 12 -9 11 -1 0 -12 -4 -24 -9z"/>
<path d="M835 4390 c3 -5 8 -10 11 -10 2 0 4 5 4 10 0 6 -5 10 -11 10 -5 0 -7
-4 -4 -10z"/>
<path d="M1 4374 c0 -11 3 -14 6 -6 3 7 2 16 -1 19 -3 4 -6 -2 -5 -13z"/>
<path d="M820 4370 c0 -5 5 -10 11 -10 5 0 7 5 4 10 -3 6 -8 10 -11 10 -2 0
-4 -4 -4 -10z"/>
<path d="M730 4339 c0 -30 28 -48 41 -27 5 8 3 15 -4 17 -7 2 -17 11 -24 20
-11 14 -12 12 -13 -10z"/>
<path d="M2 4295 c0 -16 2 -22 5 -12 2 9 2 23 0 30 -3 6 -5 -1 -5 -18z"/>
<path d="M25 4310 c-12 -19 5 -30 25 -17 11 6 20 15 20 19 0 12 -38 10 -45 -2z"/>
<path d="M935 4300 c3 -5 8 -10 11 -10 2 0 4 5 4 10 0 6 -5 10 -11 10 -5 0 -7
-4 -4 -10z"/>
<path d="M1327 4283 c-4 -3 -7 -11 -7 -17 0 -6 5 -5 12 2 6 6 9 14 7 17 -3 3
-9 2 -12 -2z"/>
<path d="M922 4263 c-26 -5 -20 -23 9 -23 10 0 19 7 19 15 0 8 -1 14 -2 14 -2
-1 -13 -4 -26 -6z"/>
<path d="M976 4255 c4 -8 10 -15 15 -15 4 0 6 7 3 15 -4 8 -10 15 -15 15 -4 0
-6 -7 -3 -15z"/>
<path d="M1448 4259 c-4 -10 -17 -15 -37 -14 -16 1 -28 -2 -25 -7 14 -22 80
-1 72 23 -3 10 -6 9 -10 -2z"/>
<path d="M1578 4245 c-3 -14 -1 -25 3 -25 5 0 9 11 9 25 0 14 -2 25 -4 25 -2
0 -6 -11 -8 -25z"/>
<path d="M1477 4253 c-13 -12 -7 -23 12 -23 26 0 35 16 15 24 -19 7 -19 7 -27
-1z"/>
<path d="M1015 4230 c-3 -5 -1 -10 4 -10 6 0 11 5 11 10 0 6 -2 10 -4 10 -3 0
-8 -4 -11 -10z"/>
<path d="M1320 4230 c-9 -6 -10 -10 -3 -10 6 0 15 5 18 10 8 12 4 12 -15 0z"/>
<path d="M1365 4220 c3 -5 8 -10 11 -10 2 0 4 5 4 10 0 6 -5 10 -11 10 -5 0
-7 -4 -4 -10z"/>
<path d="M1151 4204 c0 -11 3 -14 6 -6 3 7 2 16 -1 19 -3 4 -6 -2 -5 -13z"/>
<path d="M1265 4210 c3 -5 8 -10 11 -10 2 0 4 5 4 10 0 6 -5 10 -11 10 -5 0
-7 -4 -4 -10z"/>
<path d="M1386 4202 c-3 -6 -1 -14 5 -17 15 -10 25 3 12 16 -7 7 -13 7 -17 1z"/>
<path d="M1287 4186 c-6 -15 3 -36 15 -36 6 0 8 7 4 15 -7 19 -1 19 19 -1 12
-13 19 -14 30 -4 8 7 15 18 14 24 0 7 -2 6 -6 -1 -2 -7 -12 -13 -20 -13 -8 0
-13 6 -10 13 3 7 -5 13 -19 13 -12 1 -25 -3 -27 -10z"/>
<path d="M1080 4179 c0 -5 5 -7 10 -4 6 3 10 8 10 11 0 2 -4 4 -10 4 -5 0 -10
-5 -10 -11z"/>
<path d="M780 4160 c-8 -5 -10 -10 -5 -10 6 0 17 5 25 10 8 5 11 10 5 10 -5 0
-17 -5 -25 -10z"/>
<path d="M834 4143 c10 -11 37 -12 30 -2 -3 5 -12 9 -21 9 -9 0 -13 -3 -9 -7z"/>
<path d="M1145 4140 c-3 -5 1 -10 9 -10 9 0 16 5 16 10 0 6 -4 10 -9 10 -6 0
-13 -4 -16 -10z"/>
<path d="M1244 4136 c-9 -10 -6 -13 17 -13 32 0 38 11 13 21 -19 7 -17 8 -30
-8z"/>
<path d="M550 4131 c0 -5 9 -7 20 -4 11 3 20 7 20 9 0 2 -9 4 -20 4 -11 0 -20
-4 -20 -9z"/>
<path d="M1310 4125 c0 -8 2 -15 4 -15 2 0 12 -3 21 -6 15 -6 15 -4 4 15 -16
25 -29 27 -29 6z"/>
<path d="M1425 4130 c3 -5 10 -10 16 -10 5 0 9 5 9 10 0 6 -7 10 -16 10 -8 0
-12 -4 -9 -10z"/>
<path d="M717 4119 c7 -7 15 -10 18 -7 3 3 -2 9 -12 12 -14 6 -15 5 -6 -5z"/>
<path d="M846 4108 c3 -5 10 -6 15 -3 13 9 11 12 -6 12 -8 0 -12 -4 -9 -9z"/>
<path d="M800 4100 c0 -5 5 -10 11 -10 5 0 7 5 4 10 -3 6 -8 10 -11 10 -2 0
-4 -4 -4 -10z"/>
<path d="M488 4054 c-8 -13 3 -74 12 -74 15 0 17 25 5 54 -7 16 -14 25 -17 20z"/>
</g>
</svg>
